<svg width="531" height="113" viewBox="0 0 531 113" fill="none" xmlns="http://www.w3.org/2000/svg">
<path d="M498.006 35.7246C504.027 35.7246 509.436 37.0322 514.234 39.6473C519.032 42.2624 522.842 46.3718 525.665 51.9756C528.581 57.5794 530.039 64.8643 530.039 73.8304C530.039 82.7964 528.581 90.0813 525.665 95.6851C522.842 101.196 519.032 105.258 514.234 107.873C509.436 110.488 504.027 111.796 498.006 111.796C492.079 111.796 486.669 110.488 481.777 107.873C476.979 105.258 473.122 101.196 470.205 95.6851C467.383 90.0813 465.972 82.7964 465.972 73.8304C465.972 64.8643 467.383 57.5794 470.205 51.9756C473.122 46.3718 476.979 42.2624 481.777 39.6473C486.669 37.0322 492.079 35.7246 498.006 35.7246ZM498.006 38.5265C492.643 38.5265 488.221 41.2817 484.74 46.7921C481.354 52.3025 479.66 61.3152 479.66 73.8304C479.66 86.3455 481.354 95.3582 484.74 100.869C488.221 106.286 492.643 108.994 498.006 108.994C503.368 108.994 507.743 106.286 511.13 100.869C514.61 95.3582 516.351 86.3455 516.351 73.8304C516.351 61.3152 514.61 52.3025 511.13 46.7921C507.743 41.2817 503.368 38.5265 498.006 38.5265Z" fill="white"/>
<path d="M446.643 2.66113C449.089 2.66113 451.206 3.5484 452.993 5.32293C454.781 7.09746 455.675 9.19888 455.675 11.6272C455.675 14.0555 454.781 16.1569 452.993 17.9314C451.206 19.706 449.089 20.5933 446.643 20.5933C444.197 20.5933 442.08 19.706 440.293 17.9314C438.505 16.1569 437.612 14.0555 437.612 11.6272C437.612 9.19888 438.505 7.09746 440.293 5.32293C442.08 3.5484 444.197 2.66113 446.643 2.66113ZM453.981 36.1437V96.8047C453.981 100.727 454.781 103.389 456.38 104.79C458.074 106.191 460.849 106.892 464.706 106.892V109.834C463.107 109.74 460.661 109.647 457.368 109.553C454.169 109.367 450.924 109.273 447.631 109.273C444.432 109.273 441.187 109.367 437.894 109.553C434.601 109.647 432.155 109.74 430.556 109.834V106.892C434.413 106.892 437.141 106.191 438.741 104.79C440.434 103.389 441.281 100.727 441.281 96.8047V52.9551C441.281 48.7523 440.528 45.6702 439.023 43.7089C437.518 41.6541 434.695 40.6268 430.556 40.6268V37.6848C433.566 37.965 436.483 38.1051 439.305 38.1051C442.033 38.1051 444.62 37.965 447.067 37.6848C449.607 37.3112 451.912 36.7975 453.981 36.1437Z" fill="white"/>
<path d="M421.235 0V94.5639C421.235 98.7667 421.987 101.896 423.492 103.95C425.092 105.912 427.914 106.892 431.96 106.892V109.834C429.043 109.554 426.127 109.414 423.21 109.414C420.482 109.414 417.848 109.554 415.308 109.834C412.862 110.114 410.604 110.628 408.534 111.375V16.8114C408.534 12.6085 407.781 9.52644 406.276 7.56511C404.771 5.51039 401.948 4.48303 397.809 4.48303V1.54104C400.819 1.82123 403.736 1.96133 406.558 1.96133C409.287 1.96133 411.874 1.82123 414.32 1.54104C416.86 1.16746 419.165 0.653778 421.235 0ZM391.6 35.7241C395.739 35.7241 399.596 36.7048 403.171 38.6661C406.841 40.6274 409.287 43.9897 410.51 48.7529L408.675 50.1539C407.358 46.2312 405.288 43.3826 402.466 41.6081C399.738 39.8336 396.492 38.9463 392.729 38.9463C387.178 38.9463 382.521 41.7949 378.758 47.4921C375.089 53.1893 373.301 61.9685 373.396 73.8299C373.396 81.395 374.101 87.6992 375.512 92.7427C377.018 97.6927 379.181 101.429 382.004 103.95C384.92 106.379 388.448 107.593 392.588 107.593C396.539 107.593 400.114 105.912 403.313 102.549C406.511 99.187 408.44 94.237 409.098 87.6992L410.792 89.6606C410.039 96.7587 407.734 102.222 403.877 106.052C400.114 109.881 394.987 111.796 388.495 111.796C382.662 111.796 377.535 110.395 373.113 107.593C368.786 104.791 365.446 100.588 363.094 94.9842C360.836 89.3804 359.707 82.329 359.707 73.8299C359.707 65.3308 361.165 58.2794 364.082 52.6756C367.092 46.9784 370.996 42.7289 375.795 39.927C380.687 37.1251 385.955 35.7241 391.6 35.7241Z" fill="white"/>
<path d="M347.563 36.1455V94.7051C347.563 98.9079 348.316 102.037 349.821 104.091C351.421 106.053 354.243 107.033 358.288 107.033V109.975C355.372 109.695 352.455 109.555 349.539 109.555C346.811 109.555 344.177 109.695 341.636 109.975C339.19 110.256 336.932 110.769 334.863 111.516V94.9853C332.511 101.056 329.171 105.399 324.843 108.014C320.61 110.536 316.235 111.797 311.719 111.797C308.427 111.797 305.557 111.33 303.111 110.396C300.665 109.462 298.642 108.154 297.043 106.473C295.256 104.605 294.032 102.177 293.374 99.1881C292.715 96.1994 292.386 92.5103 292.386 88.1206V52.9569C292.386 48.754 291.633 45.6719 290.128 43.7106C288.623 41.6559 285.801 40.6285 281.661 40.6285V38.1397C284.672 38.4199 287.594 38.1397 290.416 38.1397C293.145 38.1397 295.726 37.9667 298.172 37.6865C300.712 37.313 303.017 36.7993 305.087 36.1455V91.2027C305.087 94.098 305.275 96.7598 305.651 99.1881C306.028 101.616 306.968 103.578 308.474 105.072C309.979 106.566 312.425 107.314 315.812 107.314C319.481 107.314 322.727 106.193 325.549 103.951C328.465 101.71 330.723 98.6744 332.323 94.8452C334.016 91.0159 334.863 86.7197 334.863 81.9565V52.9569C334.863 48.754 334.11 45.6719 332.605 43.7106C331.1 41.6559 328.277 40.6285 324.138 40.6285V37.6865C327.148 37.9667 330.065 38.1068 332.887 38.1068C335.615 38.1068 338.203 37.9667 340.649 37.6865C343.189 37.313 345.494 36.7993 347.563 36.1455Z" fill="white"/>
<path d="M264.795 14.4297V37.8255H302.037V40.6274H264.795V99.9451C260.532 105.714 257.212 108.186 252.231 101.593C252.231 98.297 252.094 92.5091 252.094 87.5591V40.6274H238.547V37.8255H252.094V16.391C254.446 16.2976 256.704 16.1108 258.868 15.8306C261.032 15.5505 263.007 15.0835 264.795 14.4297Z" fill="white"/>
<path d="M267.198 106.316C265.609 104.909 264.814 102.236 264.814 98.2969H252.191C252.191 102.236 251.489 104.909 250.087 106.316C248.684 107.723 246.3 108.426 242.934 108.426V111.381C244.43 111.287 246.627 111.193 249.526 111.099C252.518 110.912 255.557 110.818 258.643 110.818C261.728 110.818 264.908 110.912 268.18 111.099C271.453 111.193 273.884 111.287 275.474 111.381V108.426C271.64 108.426 268.882 107.723 267.198 106.316Z" fill="white"/>
<path d="M212.685 35.7246C216.448 35.7246 219.647 36.3317 222.281 37.5458C224.916 38.76 226.844 39.8808 228.067 40.9081C231.172 43.4298 233.053 41.7487 233.712 35.8647H236.958C236.77 38.4798 236.628 41.6086 236.534 45.251C236.44 48.8001 236.393 53.61 236.393 59.6808H233.147C232.583 56.2251 231.595 52.8629 230.184 49.594C228.867 46.3251 226.891 43.6633 224.257 41.6086C221.623 39.4605 218.189 38.3864 213.955 38.3864C210.663 38.3864 207.887 39.3204 205.629 41.1883C203.466 42.9628 202.384 45.6246 202.384 49.1737C202.384 51.9756 203.23 54.4039 204.924 56.4586C206.617 58.4199 208.828 60.2879 211.556 62.0624C214.285 63.7435 217.248 65.6115 220.447 67.6662C224.022 69.9077 227.268 72.1959 230.184 74.5308C233.1 76.8657 235.405 79.4341 237.099 82.236C238.886 85.0379 239.78 88.3535 239.78 92.1828C239.78 96.479 238.651 100.075 236.393 102.97C234.135 105.865 231.172 108.06 227.503 109.554C223.928 111.049 219.976 111.796 215.649 111.796C213.579 111.796 211.603 111.609 209.722 111.236C207.934 110.955 206.194 110.488 204.5 109.835C203.56 109.368 202.572 108.807 201.537 108.154C200.596 107.5 199.655 106.799 198.715 106.052C197.774 105.305 196.927 105.352 196.174 106.192C195.422 106.939 194.857 108.48 194.481 110.815H191.235C191.424 107.827 191.565 104.184 191.659 99.888C191.753 95.5917 191.8 89.8945 191.8 82.7964H195.046C195.704 88.0266 196.645 92.603 197.868 96.5257C199.091 100.448 201.02 103.53 203.654 105.772C206.288 107.92 209.957 108.994 214.661 108.994C216.543 108.994 218.424 108.574 220.306 107.733C222.281 106.893 223.928 105.492 225.245 103.53C226.562 101.569 227.221 98.954 227.221 95.6851C227.221 91.5757 225.715 88.2134 222.705 85.5983C219.694 82.9832 215.884 80.228 211.274 77.3327C207.887 75.1846 204.689 73.0365 201.678 70.8884C198.762 68.7402 196.363 66.3119 194.481 63.6035C192.694 60.895 191.8 57.6261 191.8 53.7968C191.8 49.594 192.741 46.185 194.622 43.5699C196.598 40.8614 199.185 38.9001 202.384 37.6859C205.582 36.3784 209.016 35.7246 212.685 35.7246Z" fill="white"/>
<path d="M132.829 35.667C136.135 35.667 139.017 36.1359 141.473 37.0737C143.93 38.0116 145.96 39.3257 147.566 41.0139C149.361 42.8897 150.59 45.328 151.251 48.3293C151.913 51.3305 152.244 55.0352 152.244 59.4432V97.0067C152.244 100.946 153.047 103.62 154.653 105.027C156.354 106.434 159.141 107.137 163.014 107.137V110.091C161.408 109.997 158.95 109.904 155.644 109.811C152.337 109.623 149.125 109.529 146.008 109.529C142.89 109.529 139.819 109.623 136.796 109.811C133.867 109.904 131.647 109.997 130.136 110.091V107.137C133.537 107.137 135.946 106.434 137.363 105.027C138.78 103.62 139.489 100.946 139.489 97.0067V56.348C139.489 53.4407 139.299 50.7677 138.921 48.3293C138.543 45.8908 137.599 43.9212 136.087 42.4206C134.576 40.92 132.12 40.1689 128.719 40.1689C125.034 40.1689 121.727 41.2947 118.798 43.5457C115.963 45.7967 113.697 48.8457 111.996 52.6911C110.39 56.5364 109.587 60.8504 109.587 65.6335V97.0067C109.587 100.946 110.39 103.62 111.996 105.027C113.697 106.434 116.484 107.137 120.357 107.137V110.091C118.751 109.997 116.295 109.904 112.989 109.811C109.682 109.623 106.469 109.529 103.352 109.529C100.234 109.529 97.1626 109.623 94.1394 109.811C91.2108 109.904 88.9906 109.997 87.479 110.091V107.137C90.8801 107.137 93.2896 106.434 94.7068 105.027C96.124 103.62 96.8324 100.946 96.8324 97.0067V56.348C96.8323 53.4407 96.6428 50.7677 96.2649 48.3293C95.887 45.8908 94.9424 43.9212 93.4309 42.4206C91.9191 40.9201 87.8029 40.1689 84.4018 40.1689C80.7172 40.1689 77.4098 41.2947 74.4811 43.5457C71.735 45.7267 69.5237 48.7016 67.8418 52.4674V94.8966C67.8418 99.1172 68.5984 102.26 70.11 104.324C71.7162 106.293 74.5502 107.277 78.6121 107.277L78.6511 110.092H55.087V95.1782C52.7251 101.275 49.3712 105.636 45.0252 108.262C40.7738 110.794 34.7202 112.061 30.1854 112.061C26.879 112.061 23.9969 111.592 21.5406 110.654C19.0847 109.716 17.0537 108.403 15.4478 106.715C13.6527 104.84 12.4239 102.4 11.7626 99.3985C11.1013 96.3973 10.7703 92.6924 10.7703 88.2846V52.9728C10.7703 48.7524 10.0152 45.657 8.50374 43.6873C6.99211 41.6239 4.15699 40.5922 0 40.5922V37.6371C3.02326 37.9185 5.95316 38.0588 8.78747 38.0588C11.527 38.0588 14.1249 37.9184 16.5811 37.6371C19.1318 37.2619 21.4467 36.7468 23.5251 36.0903V91.3797C23.5251 94.287 23.7147 96.96 24.0926 99.3985C24.4705 101.837 25.415 103.808 26.9266 105.309C28.4382 106.809 30.8947 107.559 34.2954 107.559C37.98 107.559 42.8994 106.433 45.7337 104.182C48.6624 101.931 50.9306 98.8835 52.5367 95.0382C54.2373 91.1928 55.087 86.8776 55.087 82.0943V52.9728C55.087 48.7525 54.3318 45.657 52.8204 43.6873C51.3088 41.6239 48.4737 40.5922 44.3167 40.5922V37.6371C47.34 37.9185 50.2699 38.0588 53.1042 38.0588C55.8437 38.0588 58.4416 37.9184 60.8978 37.6371C63.4485 37.2619 65.7634 36.7468 67.8418 36.0903V47.473C69.915 44.0324 72.4123 41.4108 75.3322 39.6072C79.5837 36.981 85.6372 35.667 90.172 35.667C93.4786 35.667 96.3605 36.1359 98.8168 37.0737C101.273 38.0116 103.304 39.3257 104.91 41.0139C106.705 42.8897 107.934 45.328 108.595 48.3293C108.865 49.5565 109.075 50.902 109.235 52.3644C111.779 45.9943 115.202 41.6478 119.506 39.3255C123.852 36.8869 128.294 35.667 132.829 35.667Z" fill="white"/>
<path d="M498.522 56.0303C501.681 64.0402 508.022 70.3806 516.032 73.5397C508.022 76.6987 501.681 83.0392 498.522 91.0491C495.363 83.0392 489.023 76.6987 481.013 73.5397C489.023 70.3806 495.363 64.0402 498.522 56.0303Z" fill="white"/>
</svg>
