<svg width="343" height="73" viewBox="0 0 343 73" fill="none" xmlns="http://www.w3.org/2000/svg">
<path d="M322.27 23.1182C326.166 23.1182 329.667 23.9643 332.772 25.6566C335.877 27.3489 338.342 30.0082 340.169 33.6346C342.056 37.2609 343 41.9752 343 47.7773C343 53.5795 342.056 58.2938 340.169 61.9201C338.342 65.486 335.877 68.1151 332.772 69.8074C329.667 71.4997 326.166 72.3459 322.27 72.3459C318.434 72.3459 314.934 71.4997 311.768 69.8074C308.663 68.1151 306.167 65.486 304.28 61.9201C302.453 58.2938 301.54 53.5795 301.54 47.7773C301.54 41.9752 302.453 37.2609 304.28 33.6346C306.167 30.0082 308.663 27.3489 311.768 25.6566C314.934 23.9643 318.434 23.1182 322.27 23.1182ZM322.27 24.9313C318.8 24.9313 315.938 26.7143 313.686 30.2802C311.494 33.8461 310.398 39.6785 310.398 47.7773C310.398 55.8762 311.494 61.7086 313.686 65.2745C315.938 68.7799 318.8 70.5327 322.27 70.5327C325.74 70.5327 328.571 68.7799 330.763 65.2745C333.015 61.7086 334.142 55.8762 334.142 47.7773C334.142 39.6785 333.015 33.8461 330.763 30.2802C328.571 26.7143 325.74 24.9313 322.27 24.9313Z" fill="white"/>
<path d="M289.033 1.72217C290.616 1.72217 291.985 2.29634 293.142 3.44468C294.299 4.59303 294.877 5.95291 294.877 7.52433C294.877 9.09575 294.299 10.4556 293.142 11.604C291.985 12.7523 290.616 13.3265 289.033 13.3265C287.45 13.3265 286.08 12.7523 284.923 11.604C283.766 10.4556 283.188 9.09575 283.188 7.52433C283.188 5.95291 283.766 4.59303 284.923 3.44468C286.08 2.29634 287.45 1.72217 289.033 1.72217ZM293.781 23.3896V62.6448C293.781 65.1833 294.299 66.9058 295.334 67.8124C296.43 68.719 298.226 69.1723 300.722 69.1723V71.0761C299.687 71.0157 298.104 70.9552 295.973 70.8948C293.903 70.7739 291.803 70.7135 289.672 70.7135C287.602 70.7135 285.502 70.7739 283.371 70.8948C281.24 70.9552 279.657 71.0157 278.622 71.0761V69.1723C281.118 69.1723 282.884 68.719 283.919 67.8124C285.015 66.9058 285.562 65.1833 285.562 62.6448V34.2687C285.562 31.5489 285.075 29.5544 284.101 28.2852C283.127 26.9555 281.301 26.2907 278.622 26.2907V24.3868C280.57 24.5682 282.458 24.6588 284.284 24.6588C286.049 24.6588 287.724 24.5682 289.307 24.3868C290.95 24.1451 292.442 23.8127 293.781 23.3896Z" fill="white"/>
<path d="M272.59 0V61.1947C272.59 63.9144 273.077 65.9391 274.051 67.2688C275.086 68.538 276.913 69.1726 279.531 69.1726V71.0764C277.643 70.8951 275.756 70.8045 273.869 70.8045C272.103 70.8045 270.399 70.8951 268.755 71.0764C267.172 71.2578 265.711 71.5902 264.371 72.0737V10.879C264.371 8.15929 263.884 6.16479 262.91 4.89557C261.936 3.56591 260.11 2.90108 257.431 2.90108V0.997244C259.379 1.17856 261.266 1.26922 263.093 1.26922C264.858 1.26922 266.533 1.17856 268.116 0.997244C269.759 0.75549 271.251 0.423076 272.59 0ZM253.413 23.118C256.092 23.118 258.588 23.7526 260.901 25.0218C263.276 26.291 264.858 28.4668 265.65 31.5492L264.463 32.4558C263.61 29.9174 262.271 28.074 260.445 26.9256C258.679 25.7773 256.579 25.2031 254.143 25.2031C250.552 25.2031 247.538 27.0465 245.103 30.7333C242.728 34.4201 241.572 40.1014 241.633 47.7772C241.633 52.6727 242.089 56.7524 243.002 60.0161C243.976 63.2194 245.377 65.6369 247.203 67.2688C249.09 68.8402 251.373 69.6259 254.052 69.6259C256.609 69.6259 258.923 68.538 260.993 66.3622C263.062 64.1864 264.311 60.9831 264.737 56.7524L265.833 58.0216C265.345 62.615 263.854 66.1507 261.358 68.6287C258.923 71.1067 255.605 72.3457 251.404 72.3457C247.629 72.3457 244.311 71.4391 241.45 69.6259C238.649 67.8127 236.488 65.093 234.966 61.4666C233.505 57.8403 232.774 53.2771 232.774 47.7772C232.774 42.2772 233.718 37.714 235.605 34.0877C237.554 30.4009 240.08 27.6509 243.185 25.8377C246.351 24.0246 249.76 23.118 253.413 23.118Z" fill="white"/>
<path d="M224.916 23.3901V61.2855C224.916 64.0053 225.403 66.03 226.377 67.3596C227.412 68.6289 229.239 69.2635 231.857 69.2635V71.1673C229.969 70.986 228.082 70.8953 226.195 70.8953C224.429 70.8953 222.725 70.986 221.081 71.1673C219.498 71.3486 218.037 71.681 216.697 72.1646V61.4668C215.175 65.3954 213.014 68.2058 210.214 69.8981C207.474 71.53 204.643 72.3459 201.721 72.3459C199.59 72.3459 197.733 72.0437 196.15 71.4393C194.567 70.8349 193.258 69.9888 192.223 68.9009C191.067 67.6921 190.275 66.1207 189.849 64.1866C189.423 62.2525 189.21 59.8652 189.21 57.0245V34.2692C189.21 31.5494 188.723 29.5549 187.749 28.2857C186.775 26.9561 184.948 26.2912 182.27 26.2912V24.6806C184.218 24.862 186.109 24.6806 187.935 24.6806C189.701 24.6806 191.371 24.5687 192.954 24.3874C194.598 24.1456 196.089 23.8132 197.429 23.3901V59.019C197.429 60.8927 197.551 62.6152 197.794 64.1866C198.038 65.758 198.646 67.0272 199.62 67.9943C200.595 68.9613 202.177 69.4448 204.369 69.4448C206.743 69.4448 208.844 68.7195 210.67 67.269C212.558 65.8185 214.019 63.8542 215.054 61.3762C216.15 58.8982 216.697 56.118 216.697 53.0356V34.2692C216.697 31.5494 216.21 29.5549 215.236 28.2857C214.262 26.9561 212.436 26.2912 209.757 26.2912V24.3874C211.705 24.5687 213.593 24.6594 215.419 24.6594C217.184 24.6594 218.859 24.5687 220.442 24.3874C222.085 24.1456 223.577 23.8132 224.916 23.3901Z" fill="white"/>
<path d="M171.355 9.3374V24.4774H195.455V26.2906H171.355V64.6766C168.596 68.4096 166.448 70.0094 163.224 65.7431C163.224 63.61 163.136 59.8645 163.136 56.6613V26.2906H154.369V24.4774H163.136V10.6066C164.658 10.5462 166.119 10.4253 167.519 10.244C168.92 10.0627 170.198 9.76048 171.355 9.3374Z" fill="white"/>
<path d="M172.91 68.7993C171.882 67.8889 171.367 66.1591 171.367 63.6099H163.198C163.198 66.1591 162.745 67.8889 161.837 68.7993C160.929 69.7097 159.386 70.1649 157.208 70.1649V72.0768C158.176 72.0161 159.598 71.9554 161.474 71.8947C163.41 71.7733 165.377 71.7126 167.374 71.7126C169.371 71.7126 171.428 71.7733 173.546 71.8947C175.664 71.9554 177.237 72.0161 178.265 72.0768V70.1649C175.785 70.1649 174 69.7097 172.91 68.7993Z" fill="white"/>
<path d="M137.634 23.1182C140.069 23.1182 142.139 23.511 143.843 24.2967C145.548 25.0824 146.796 25.8077 147.588 26.4725C149.597 28.1044 150.814 27.0165 151.24 23.2088H153.341C153.219 24.9011 153.128 26.9258 153.067 29.283C153.006 31.5796 152.976 34.6923 152.976 38.6208H150.875C150.51 36.3846 149.871 34.2088 148.957 32.0934C148.105 29.978 146.827 28.2555 145.122 26.9258C143.417 25.5357 141.195 24.8407 138.456 24.8407C136.325 24.8407 134.529 25.4451 133.068 26.6539C131.667 27.8022 130.967 29.5247 130.967 31.8214C130.967 33.6346 131.515 35.206 132.611 36.5357C133.707 37.8049 135.138 39.0137 136.903 40.162C138.669 41.2499 140.586 42.4587 142.656 43.7884C144.97 45.2389 147.07 46.7197 148.957 48.2306C150.845 49.7416 152.336 51.4037 153.432 53.2169C154.589 55.03 155.167 57.1756 155.167 59.6536C155.167 62.4338 154.437 64.7607 152.976 66.6344C151.514 68.508 149.597 69.9283 147.222 70.8953C144.909 71.8624 142.352 72.3459 139.551 72.3459C138.212 72.3459 136.934 72.225 135.716 71.9832C134.559 71.8019 133.433 71.4997 132.337 71.0766C131.728 70.7744 131.089 70.4118 130.419 69.9887C129.811 69.5657 129.202 69.1124 128.593 68.6289C127.984 68.1453 127.436 68.1756 126.949 68.7195C126.462 69.203 126.097 70.2003 125.853 71.7113H123.753C123.875 69.7772 123.966 67.4201 124.027 64.6399C124.088 61.8597 124.118 58.1729 124.118 53.5795H126.219C126.645 56.9641 127.254 59.9256 128.045 62.4641C128.836 65.0025 130.084 66.997 131.789 68.4475C133.494 69.8376 135.868 70.5327 138.912 70.5327C140.13 70.5327 141.347 70.2607 142.565 69.7168C143.843 69.1728 144.909 68.2662 145.761 66.997C146.614 65.7278 147.04 64.0355 147.04 61.9201C147.04 59.2608 146.066 57.085 144.117 55.3927C142.169 53.7004 139.704 51.9174 136.72 50.0438C134.529 48.6537 132.459 47.2636 130.511 45.8735C128.623 44.4834 127.071 42.912 125.853 41.1593C124.697 39.4065 124.118 37.2911 124.118 34.8131C124.118 32.0934 124.727 29.8874 125.945 28.1951C127.223 26.4423 128.897 25.1731 130.967 24.3874C133.037 23.5412 135.259 23.1182 137.634 23.1182Z" fill="white"/>
<path d="M85.9563 23.0806C88.0959 23.0806 89.961 23.384 91.5505 23.9909C93.14 24.5978 94.454 25.4482 95.4933 26.5407C96.6549 27.7546 97.4501 29.3324 97.8781 31.2746C98.306 33.2168 98.5202 35.6142 98.5202 38.4667V62.775C98.5202 65.3242 99.0399 67.0548 100.079 67.9652C101.18 68.8754 102.984 69.3307 105.49 69.3307V71.242C104.451 71.1813 102.86 71.1214 100.72 71.0607C98.5808 70.9394 96.5024 70.8785 94.485 70.8785C92.4675 70.8785 90.48 70.9394 88.5236 71.0607C86.6284 71.1214 85.1917 71.1813 84.2136 71.242V69.3307C86.4145 69.3307 87.9737 68.8756 88.8908 67.9652C89.8079 67.0548 90.2663 65.3242 90.2663 62.775V36.4638C90.2663 34.5824 90.1436 32.8526 89.8991 31.2746C89.6545 29.6966 89.0433 28.4221 88.0651 27.451C87.0869 26.4799 85.4974 25.9939 83.2966 25.9939C80.9122 25.9939 78.7719 26.7224 76.8766 28.1791C75.0425 29.6358 73.5758 31.6088 72.4753 34.0973C71.436 36.5857 70.9163 39.3774 70.9162 42.4726V62.775C70.9162 65.3242 71.436 67.0548 72.4753 67.9652C73.5758 68.8754 75.3796 69.3307 77.8859 69.3307V71.242C76.8467 71.1813 75.257 71.1214 73.1174 71.0607C70.9777 70.9394 68.8986 70.8785 66.8811 70.8785C64.8635 70.8785 62.8761 70.9394 60.9196 71.0607C59.0245 71.1214 57.5878 71.1813 56.6096 71.242V69.3307C58.8105 69.3307 60.3698 68.8755 61.2869 67.9652C62.2039 67.0548 62.6623 65.3242 62.6623 62.775V36.4638C62.6623 34.5824 62.5397 32.8526 62.2951 31.2746C62.0506 29.6967 61.4393 28.4221 60.4612 27.451C59.4829 26.48 56.8192 25.9939 54.6183 25.9939C52.2339 25.9939 50.0936 26.7224 48.1983 28.1791C46.4213 29.5904 44.9903 31.5156 43.9019 33.9525V61.4095C43.9019 64.1408 44.3915 66.1747 45.3697 67.51C46.4091 68.7843 48.243 69.4213 50.8716 69.4213L50.8968 71.243H35.648V61.5918C34.1196 65.5369 31.9492 68.3593 29.1368 70.0587C26.3856 71.6974 22.4682 72.5169 19.5337 72.5169C17.394 72.5168 15.5289 72.2134 13.9394 71.6065C12.3502 70.9996 11.0358 70.1501 9.9966 69.0578C8.83497 67.8439 8.03977 66.265 7.61181 64.3228C7.18391 62.3806 6.96971 59.9831 6.96971 57.1307V34.2796C6.96971 31.5485 6.48104 29.5453 5.50295 28.2707C4.52474 26.9354 2.69008 26.2678 0 26.2678V24.3555C1.95642 24.5375 3.85242 24.6283 5.68656 24.6283C7.45939 24.6283 9.14052 24.5375 10.73 24.3555C12.3806 24.1127 13.8787 23.7793 15.2236 23.3545V59.1337C15.2236 61.0151 15.3463 62.7448 15.5908 64.3228C15.8354 65.9009 16.4466 67.1763 17.4248 68.1475C18.403 69.1184 19.9927 69.6035 22.1933 69.6036C24.5777 69.6036 27.7611 68.875 29.5953 67.4184C31.4905 65.9617 32.9583 63.9895 33.9977 61.5012C35.0981 59.0127 35.648 56.2203 35.648 53.1248V34.2796C35.648 31.5485 35.1593 29.5453 34.1813 28.2707C33.2031 26.9354 31.3684 26.2678 28.6783 26.2678V24.3555C30.6347 24.5375 32.5307 24.6283 34.3649 24.6283C36.1377 24.6283 37.8188 24.5375 39.4083 24.3555C41.0589 24.1127 42.5569 23.7793 43.9019 23.3545V30.7205C45.2435 28.494 46.8596 26.7975 48.7491 25.6303C51.5004 23.9309 55.4177 23.0806 58.3523 23.0806C60.492 23.0806 62.357 23.384 63.9465 23.9909C65.536 24.5978 66.85 25.4482 67.8894 26.5407C69.051 27.7546 69.8462 29.3324 70.2741 31.2746C70.4491 32.0688 70.5851 32.9395 70.6886 33.8859C72.3344 29.7636 74.5499 26.9509 77.3351 25.4481C80.1475 23.87 83.0216 23.0806 85.9563 23.0806Z" fill="white"/>
<path d="M322.605 36.2583C324.649 41.4417 328.753 45.5448 333.936 47.5891C328.753 49.6334 324.649 53.7364 322.605 58.9198C320.561 53.7364 316.458 49.6334 311.274 47.5891C316.458 45.5448 320.561 41.4417 322.605 36.2583Z" fill="white"/>
</svg>
