<svg width="1032" height="218" viewBox="0 0 1032 218" fill="none" xmlns="http://www.w3.org/2000/svg">
<path d="M968.807 69.498C980.52 69.498 991.044 72.0417 1000.38 77.1291C1009.71 82.2165 1017.12 90.2109 1022.61 101.112C1028.29 112.014 1031.12 126.186 1031.12 143.628C1031.12 161.071 1028.29 175.243 1022.61 186.144C1017.12 196.864 1009.71 204.768 1000.38 209.855C991.044 214.942 980.52 217.486 968.807 217.486C957.277 217.486 946.753 214.942 937.236 209.855C927.902 204.768 920.399 196.864 914.725 186.144C909.235 175.243 906.489 161.071 906.489 143.628C906.489 126.186 909.235 112.014 914.725 101.112C920.399 90.2109 927.902 82.2165 937.236 77.1291C946.753 72.0417 957.277 69.498 968.807 69.498ZM968.807 74.9488C958.375 74.9488 949.773 80.3087 943.001 91.0286C936.413 101.748 933.118 119.282 933.118 143.628C933.118 167.975 936.413 185.508 943.001 196.228C949.773 206.766 958.375 212.035 968.807 212.035C979.239 212.035 987.75 206.766 994.338 196.228C1001.11 185.508 1004.5 167.975 1004.5 143.628C1004.5 119.282 1001.11 101.748 994.338 91.0286C987.75 80.3087 979.239 74.9488 968.807 74.9488Z" fill="white"/>
<path d="M868.889 5.17773C873.647 5.17773 877.765 6.90381 881.243 10.356C884.72 13.8081 886.459 17.8962 886.459 22.6202C886.459 27.3442 884.72 31.4322 881.243 34.8844C877.765 38.3365 873.647 40.0626 868.889 40.0626C864.13 40.0626 860.013 38.3365 856.535 34.8844C853.058 31.4322 851.319 27.3442 851.319 22.6202C851.319 17.8962 853.058 13.8081 856.535 10.356C860.013 6.90381 864.13 5.17773 868.889 5.17773ZM883.164 70.3143V188.323C883.164 195.954 884.72 201.132 887.831 203.858C891.126 206.583 896.525 207.946 904.029 207.946V213.669C900.917 213.488 896.159 213.306 889.753 213.124C883.53 212.761 877.216 212.579 870.811 212.579C864.588 212.579 858.274 212.761 851.868 213.124C845.463 213.306 840.704 213.488 837.593 213.669V207.946C845.097 207.946 850.404 206.583 853.515 203.858C856.81 201.132 858.457 195.954 858.457 188.323V103.019C858.457 94.8427 856.993 88.8469 854.064 85.0313C851.136 81.0341 845.646 79.0355 837.593 79.0355V73.3122C843.449 73.8573 849.123 74.1298 854.614 74.1298C859.921 74.1298 864.954 73.8573 869.713 73.3122C874.654 72.5854 879.138 71.5861 883.164 70.3143Z" fill="white"/>
<path d="M819.459 0V183.963C819.459 192.139 820.923 198.226 823.851 202.223C826.963 206.039 832.453 207.946 840.323 207.946V213.67C834.649 213.125 828.976 212.852 823.302 212.852C817.995 212.852 812.87 213.125 807.929 213.67C803.17 214.215 798.778 215.214 794.751 216.668V32.7045C794.751 24.5284 793.287 18.5326 790.359 14.7171C787.431 10.7198 781.94 8.72122 773.887 8.72122V2.99791C779.744 3.54299 785.417 3.81553 790.908 3.81553C796.215 3.81553 801.248 3.54299 806.007 2.99791C810.948 2.27115 815.432 1.27185 819.459 0ZM761.808 69.4972C769.861 69.4972 777.365 71.4049 784.319 75.2205C791.457 79.036 796.215 85.5769 798.595 94.8432L795.026 97.5686C792.464 89.9375 788.437 84.3959 782.947 80.9438C777.639 77.4916 771.325 75.7655 764.004 75.7655C753.206 75.7655 744.147 81.3071 736.826 92.3904C729.688 103.474 726.211 120.553 726.394 143.627C726.394 158.345 727.766 170.609 730.512 180.42C733.44 190.05 737.65 197.317 743.14 202.223C748.814 206.947 755.677 209.309 763.73 209.309C771.416 209.309 778.371 206.039 784.594 199.498C790.816 192.957 794.568 183.327 795.849 170.609L799.144 174.424C797.68 188.233 793.196 198.862 785.692 206.311C778.371 213.761 768.397 217.485 755.768 217.485C744.421 217.485 734.447 214.76 725.845 209.309C717.426 203.858 710.929 195.682 706.353 184.781C701.961 173.879 699.765 160.161 699.765 143.627C699.765 127.094 702.601 113.376 708.275 102.474C714.132 91.3911 721.727 83.1241 731.061 77.6733C740.578 72.2225 750.827 69.4972 761.808 69.4972Z" fill="white"/>
<path d="M676.141 70.3164V184.237C676.141 192.413 677.605 198.5 680.534 202.497C683.645 206.313 689.135 208.221 697.005 208.221V213.944C691.332 213.399 685.658 213.126 679.984 213.126C674.677 213.126 669.552 213.399 664.611 213.944C659.852 214.489 655.46 215.488 651.434 216.942V184.782C646.858 196.592 640.361 205.041 631.942 210.128C623.706 215.034 615.196 217.487 606.411 217.487C600.005 217.487 594.423 216.578 589.665 214.762C584.906 212.945 580.971 210.401 577.86 207.131C574.383 203.497 572.003 198.773 570.722 192.959C569.441 187.144 568.801 179.968 568.801 171.428V103.021C568.801 94.8448 567.337 88.849 564.408 85.0335C561.48 81.0362 555.989 79.0376 547.937 79.0376V74.1959C553.793 74.741 559.478 74.1959 564.969 74.1959C570.276 74.1959 575.298 73.8594 580.056 73.3143C584.998 72.5875 589.482 71.5882 593.508 70.3164V177.424C593.508 183.056 593.874 188.235 594.606 192.959C595.338 197.683 597.169 201.498 600.097 204.405C603.025 207.312 607.784 208.766 614.372 208.766C621.51 208.766 627.824 206.585 633.315 202.225C638.988 197.864 643.381 191.959 646.492 184.51C649.786 177.06 651.434 168.703 651.434 159.436V103.021C651.434 94.8448 649.969 88.849 647.041 85.0335C644.113 81.0362 638.622 79.0376 630.569 79.0376V73.3143C636.426 73.8594 642.1 74.1319 647.59 74.1319C652.898 74.1319 657.931 73.8594 662.689 73.3143C667.631 72.5875 672.115 71.5882 676.141 70.3164Z" fill="white"/>
<path d="M515.125 28.0703V73.5842H587.576V79.0349H515.125V194.431C506.832 205.653 500.373 210.462 490.683 197.637C490.683 191.224 490.417 179.965 490.417 170.335V79.0349H464.062V73.5842H490.417V31.8859C494.993 31.7042 499.385 31.3408 503.595 30.7957C507.804 30.2506 511.647 29.3422 515.125 28.0703Z" fill="white"/>
<path d="M519.802 206.825C516.71 204.088 515.163 198.888 515.163 191.225H490.606C490.606 198.888 489.242 204.088 486.513 206.825C483.785 209.562 479.146 210.93 472.598 210.93V216.678C475.508 216.495 479.783 216.313 485.422 216.131C491.243 215.766 497.155 215.583 503.158 215.583C509.161 215.583 515.345 215.766 521.712 216.131C528.079 216.313 532.808 216.495 535.901 216.678V210.93C528.442 210.93 523.076 209.562 519.802 206.825Z" fill="white"/>
<path d="M413.753 69.498C421.073 69.498 427.296 70.679 432.421 73.041C437.545 75.403 441.297 77.5834 443.676 79.582C449.716 84.4876 453.376 81.2172 454.657 69.7706H460.971C460.605 74.858 460.331 80.9447 460.148 88.0306C459.965 94.9349 459.873 104.292 459.873 116.102H453.559C452.461 109.379 450.539 102.839 447.794 96.4793C445.232 90.1201 441.388 84.9419 436.264 80.9447C431.139 76.7657 424.459 74.6763 416.223 74.6763C409.818 74.6763 404.419 76.4932 400.026 80.127C395.817 83.5792 393.712 88.7574 393.712 95.6617C393.712 101.112 395.359 105.836 398.654 109.834C401.948 113.649 406.249 117.283 411.556 120.735C416.864 124.006 422.629 127.639 428.852 131.637C435.806 135.997 442.121 140.449 447.794 144.991C453.468 149.533 457.952 154.53 461.246 159.981C464.723 165.431 466.462 171.881 466.462 179.331C466.462 187.689 464.266 194.684 459.873 200.316C455.481 205.949 449.716 210.218 442.578 213.126C435.623 216.033 427.937 217.486 419.518 217.486C415.491 217.486 411.648 217.123 407.988 216.396C404.51 215.851 401.124 214.942 397.83 213.671C396 212.762 394.078 211.672 392.065 210.4C390.235 209.128 388.405 207.766 386.574 206.312C384.744 204.859 383.097 204.949 381.633 206.585C380.169 208.038 379.071 211.036 378.339 215.578H372.024C372.39 209.764 372.665 202.678 372.848 194.32C373.031 185.963 373.123 174.879 373.123 161.071H379.437C380.718 171.246 382.548 180.148 384.927 187.78C387.306 195.411 391.058 201.406 396.183 205.767C401.307 209.946 408.445 212.035 417.596 212.035C421.256 212.035 424.917 211.218 428.577 209.583C432.421 207.947 435.623 205.222 438.186 201.406C440.748 197.591 442.029 192.504 442.029 186.144C442.029 178.15 439.101 171.609 433.244 166.522C427.388 161.434 419.975 156.074 411.007 150.442C404.419 146.263 398.196 142.084 392.339 137.905C386.666 133.726 381.999 129.002 378.339 123.733C374.861 118.464 373.123 112.105 373.123 104.655C373.123 96.4793 374.953 89.8476 378.613 84.7602C382.456 79.4911 387.489 75.6756 393.712 73.3136C399.935 70.7699 406.615 69.498 413.753 69.498Z" fill="white"/>
<path d="M258.401 69.3848C264.834 69.3849 270.44 70.2969 275.219 72.1214C279.997 73.946 283.947 76.5024 287.072 79.7865C290.564 83.4357 292.954 88.1791 294.241 94.0178C295.527 99.8562 296.171 107.063 296.171 115.639V188.714C296.171 196.377 297.733 201.58 300.858 204.317C304.166 207.053 309.589 208.422 317.123 208.422V214.167C313.999 213.985 309.218 213.805 302.785 213.623C296.353 213.258 290.105 213.075 284.041 213.075C277.975 213.075 272.001 213.258 266.119 213.623C260.422 213.805 256.103 213.985 253.162 214.167V208.422C259.779 208.422 264.466 207.054 267.223 204.317C269.98 201.58 271.358 196.377 271.358 188.714V109.617C271.358 103.961 270.989 98.7614 270.254 94.0178C269.519 89.274 267.682 85.4425 264.741 82.5232C261.8 79.604 257.022 78.1427 250.406 78.1427C243.238 78.1427 236.804 80.3328 231.106 84.7119C225.592 89.0909 221.183 95.0224 217.875 102.503C214.751 109.984 213.188 118.376 213.188 127.681V188.714C213.188 196.377 214.751 201.58 217.875 204.317C221.183 207.053 226.606 208.422 234.14 208.422V214.167C231.016 213.985 226.237 213.805 219.805 213.623C213.373 213.258 207.123 213.075 201.058 213.075C194.992 213.075 189.018 213.258 183.136 213.623C177.439 213.805 173.12 213.985 170.18 214.167V208.422C176.796 208.422 181.483 207.053 184.24 204.317C186.997 201.58 188.375 196.377 188.375 188.714V109.617C188.375 103.961 188.006 98.7614 187.271 94.0178C186.536 89.274 184.699 85.4425 181.758 82.5232C178.817 79.604 170.81 78.1427 164.193 78.1427C157.025 78.1427 150.591 80.3328 144.894 84.7119C139.551 88.9547 135.25 94.7421 131.978 102.068V184.609C131.978 192.82 133.45 198.934 136.39 202.948C139.515 206.779 145.028 208.694 152.93 208.694L153.006 214.171H107.165V185.157C102.57 197.017 96.0454 205.501 87.5909 210.61C79.3203 215.537 67.5438 218 58.722 218C52.2897 218 46.6829 217.088 41.9046 215.263C37.127 213.439 33.1758 210.885 30.0517 207.601C26.5597 203.952 24.1691 199.206 22.8826 193.367C21.5962 187.528 20.9523 180.321 20.9523 171.746V103.051C20.9523 94.841 19.4833 88.8191 16.543 84.9874C13.6023 80.9733 8.0869 78.9662 0 78.9662V73.2173C5.88138 73.7647 11.5811 74.0377 17.0949 74.0377C22.4244 74.0377 27.4782 73.7646 32.2564 73.2173C37.2184 72.4875 41.722 71.4853 45.7652 70.2083V177.767C45.7652 183.423 46.134 188.623 46.8691 193.367C47.6043 198.111 49.4417 201.945 52.3824 204.865C55.323 207.783 60.1019 209.242 66.7175 209.242C73.8853 209.242 83.4554 207.052 88.9693 202.673C94.6667 198.294 99.0792 192.365 102.204 184.885C105.512 177.404 107.165 169.009 107.165 159.704V103.051C107.165 94.8411 105.696 88.8192 102.756 84.9874C99.8149 80.9733 94.2995 78.9662 86.2126 78.9662V73.2173C92.094 73.7647 97.7937 74.0377 103.308 74.0377C108.637 74.0377 113.691 73.7647 118.469 73.2173C123.431 72.4875 127.935 71.4854 131.978 70.2083V92.352C136.011 85.6587 140.869 80.5587 146.549 77.0499C154.82 71.9411 166.596 69.3848 175.418 69.3848C181.851 69.3848 187.457 70.2969 192.236 72.1214C197.014 73.946 200.964 76.5024 204.089 79.7865C207.581 83.4357 209.971 88.1791 211.258 94.0178C211.784 96.4051 212.193 99.0227 212.504 101.868C217.452 89.4753 224.112 81.0198 232.485 76.5019C240.939 71.758 249.579 69.3848 258.401 69.3848Z" fill="white"/>
</svg>
