<svg width="27" height="12" viewBox="0 0 27 12" fill="none" xmlns="http://www.w3.org/2000/svg">
<path d="M13.0719 8.58972V2.77154H15.2537C15.7007 2.77154 16.0757 2.85487 16.3787 3.02154C16.6837 3.18821 16.9138 3.41737 17.0691 3.70904C17.2263 3.99881 17.3049 4.32836 17.3049 4.69768C17.3049 5.07078 17.2263 5.40222 17.0691 5.69199C16.9119 5.98177 16.6799 6.20999 16.373 6.37665C16.0662 6.54143 15.6884 6.62381 15.2395 6.62381H13.7935V5.75734H15.0975C15.3588 5.75734 15.5729 5.71188 15.7395 5.62097C15.9062 5.53006 16.0293 5.40506 16.1088 5.24597C16.1903 5.08688 16.231 4.90412 16.231 4.69768C16.231 4.49124 16.1903 4.30942 16.1088 4.15222C16.0293 3.99502 15.9052 3.87287 15.7367 3.78574C15.57 3.69673 15.3551 3.65222 15.0918 3.65222H14.1259V8.58972H13.0719ZM19.0155 8.67779C18.739 8.67779 18.4899 8.62855 18.2683 8.53006C18.0486 8.42968 17.8744 8.28196 17.7456 8.08688C17.6187 7.8918 17.5553 7.65127 17.5553 7.36529C17.5553 7.11908 17.6007 6.91548 17.6916 6.75449C17.7826 6.59351 17.9066 6.46472 18.0638 6.36813C18.221 6.27154 18.3981 6.19862 18.5951 6.14938C18.7939 6.09824 18.9994 6.06131 19.2115 6.03859C19.4672 6.01207 19.6746 5.9884 19.8337 5.96756C19.9928 5.94484 20.1083 5.91074 20.1803 5.86529C20.2541 5.81794 20.2911 5.74502 20.2911 5.64654V5.62949C20.2911 5.41548 20.2276 5.24976 20.1007 5.13234C19.9738 5.01491 19.7911 4.9562 19.5524 4.9562C19.3005 4.9562 19.1007 5.01112 18.953 5.12097C18.8072 5.23082 18.7087 5.36055 18.6576 5.51018L17.6973 5.37381C17.7731 5.10866 17.8981 4.88707 18.0723 4.70904C18.2466 4.52912 18.4596 4.39465 18.7115 4.30563C18.9634 4.21472 19.2418 4.16927 19.5468 4.16927C19.757 4.16927 19.9663 4.19389 20.1746 4.24313C20.3829 4.29237 20.5733 4.37381 20.7456 4.48745C20.918 4.59919 21.0562 4.75165 21.1604 4.94484C21.2665 5.13802 21.3195 5.37949 21.3195 5.66927V8.58972H20.3308V7.99029H20.2968C20.2343 8.1115 20.1462 8.22514 20.0326 8.3312C19.9208 8.43537 19.7797 8.51965 19.6093 8.58404C19.4407 8.64654 19.2428 8.67779 19.0155 8.67779ZM19.2826 7.92211C19.489 7.92211 19.668 7.88139 19.8195 7.79995C19.971 7.71662 20.0875 7.60677 20.1689 7.4704C20.2522 7.33404 20.2939 7.18537 20.2939 7.02438V6.51018C20.2617 6.53669 20.2068 6.56131 20.1291 6.58404C20.0534 6.60677 19.9682 6.62665 19.8735 6.6437C19.7788 6.66074 19.685 6.6759 19.5922 6.68915C19.4994 6.70241 19.4189 6.71377 19.3507 6.72324C19.1973 6.74408 19.06 6.77817 18.9388 6.82552C18.8176 6.87287 18.7219 6.93915 18.6519 7.02438C18.5818 7.10771 18.5468 7.21567 18.5468 7.34824C18.5468 7.53764 18.6159 7.68063 18.7541 7.77722C18.8924 7.87381 19.0685 7.92211 19.2826 7.92211ZM22.4996 10.2261C22.3594 10.2261 22.2297 10.2147 22.1104 10.192C21.993 10.1712 21.8992 10.1465 21.8291 10.1181L22.0678 9.31699C22.2174 9.36056 22.3509 9.38139 22.4683 9.37949C22.5858 9.3776 22.689 9.34067 22.778 9.2687C22.8689 9.19862 22.9456 9.0812 23.0081 8.91643L23.0962 8.68063L21.5138 4.22609H22.6047L23.6104 7.52154H23.6558L24.6644 4.22609H25.7581L24.0109 9.11813C23.9295 9.34919 23.8216 9.54711 23.6871 9.71188C23.5526 9.87855 23.3878 10.0054 23.1928 10.0926C22.9996 10.1816 22.7685 10.2261 22.4996 10.2261Z" fill="white"/>
<path d="M8.31771 6.31998C8.31202 5.33971 8.75181 4.60092 9.63995 4.05617C9.14322 3.3375 8.39172 2.94223 7.40111 2.86605C6.46316 2.79131 5.43697 3.41799 5.06122 3.41799C4.66412 3.41799 3.75606 2.89193 3.04157 2.89193C1.56704 2.91492 0 4.07917 0 6.4479C0 7.14788 0.126673 7.87087 0.380019 8.61541C0.718762 9.59567 1.93994 11.9975 3.21379 11.9587C3.87989 11.9428 4.351 11.4815 5.21778 11.4815C6.05895 11.4815 6.49447 11.9587 7.23743 11.9587C8.52266 11.94 9.62714 9.75665 9.9488 8.77351C8.2252 7.95279 8.31771 6.37028 8.31771 6.31998ZM6.82183 1.93609C7.54344 1.07082 7.47797 0.283156 7.45662 0C6.81898 0.0373708 6.08172 0.438388 5.66185 0.931395C5.19928 1.46034 4.92743 2.11432 4.98579 2.85168C5.67466 2.90486 6.30375 2.54696 6.82183 1.93609Z" fill="white"/>
</svg>
