<svg width="20" height="17" viewBox="0 0 20 17" fill="none" xmlns="http://www.w3.org/2000/svg">
<path d="M19.8283 4.0387L13.0403 0.0468522C12.9341 -0.0156174 12.8032 -0.0156174 12.697 0.0468522L5.90906 4.03866C5.80279 4.10113 5.73738 4.21658 5.73738 4.34152V12.3251C5.73738 12.4501 5.80279 12.5655 5.90906 12.628L12.697 16.6198C12.7501 16.651 12.8094 16.6667 12.8687 16.6667C12.9279 16.6667 12.9873 16.6511 13.0403 16.6198L19.8283 12.6281C19.9346 12.5656 20 12.4502 20 12.3252V4.34156C20 4.21662 19.9345 4.10117 19.8283 4.0387ZM12.8687 0.753559L18.97 4.34156L16.2627 5.93364L10.1614 2.34564L12.8687 0.753559ZM12.8687 7.92953L6.76743 4.34156L9.47472 2.74948L15.576 6.33749L12.8687 7.92953ZM6.42408 4.94729L12.5253 8.53525V15.7113L6.42408 12.1233V4.94729ZM13.212 15.7113V8.53529L15.9193 6.94321V8.87072C15.9193 9.06386 16.073 9.22045 16.2627 9.22045C16.4523 9.22045 16.606 9.06386 16.606 8.87072V6.53941L19.3133 4.94729V12.1233L13.212 15.7113ZM4.04691 6.70374C4.04691 6.89687 3.89318 7.05346 3.70356 7.05346H0.343348C0.153734 7.05346 0 6.89687 0 6.70374C0 6.5106 0.153734 6.35401 0.343348 6.35401H3.70356C3.89318 6.35401 4.04691 6.5106 4.04691 6.70374ZM2.85416 1.25655C2.85416 1.06342 3.0079 0.906826 3.19751 0.906826H6.31725C6.50687 0.906826 6.6606 1.06342 6.6606 1.25655C6.6606 1.44969 6.50687 1.60628 6.31725 1.60628H3.19751C3.0079 1.60628 2.85416 1.44969 2.85416 1.25655ZM4.04691 12.151C4.04691 12.3441 3.89318 12.5007 3.70356 12.5007H1.84013C1.65051 12.5007 1.49678 12.3441 1.49678 12.151C1.49678 11.9578 1.65051 11.8012 1.84013 11.8012H3.70361C3.89318 11.8012 4.04691 11.9578 4.04691 12.151Z" fill="white"/>
</svg>
