<svg width="16" height="14" viewBox="0 0 16 14" fill="none" xmlns="http://www.w3.org/2000/svg">
<path fill-rule="evenodd" clip-rule="evenodd" d="M10.3851 0.0787078L12.2015 1.17154L6.31256 4.71468V7.34014C6.31256 7.44507 6.36246 7.53513 6.44967 7.58758L7.81475 8.40888C7.85833 8.43512 7.90823 8.43512 7.95184 8.40888C7.99544 8.38264 8.02039 8.33761 8.02039 8.28516V5.74219L13.9094 2.19904L15.7258 3.2919C15.9002 3.3968 16 3.57696 16 3.78681V10.2132C16 10.4231 15.9002 10.6032 15.7258 10.7081L10.3852 13.9213C10.2108 14.0262 10.0112 14.0262 9.83682 13.9213L4.4962 10.7081C4.45069 10.6807 4.41029 10.6482 4.37541 10.6114H0.393443C0.176197 10.6114 0 10.4278 0 10.2014C0 9.97502 0.176197 9.79141 0.393443 9.79141H4.22197V7.40998H1.95475C1.73751 7.40998 1.56131 7.22636 1.56131 6.99997C1.56131 6.77358 1.73751 6.58997 1.95475 6.58997H4.22197V3.86683H0.393475C0.176229 3.86683 3.28001e-05 3.68322 3.28001e-05 3.45683C3.28001e-05 3.23044 0.176229 3.04682 0.393475 3.04682H4.87774C4.88593 3.04682 4.89403 3.0471 4.9021 3.04761L8.2937 1.00702H7.10384C6.88659 1.00702 6.71039 0.82341 6.71039 0.59702C6.71039 0.37063 6.88659 0.187017 7.10384 0.187017H9.65662L9.83679 0.0786053C10.0112 -0.0262188 10.2108 -0.0262189 10.3851 0.0787078ZM5.13315 0.187085H1.62689C1.40964 0.187085 1.23344 0.370698 1.23344 0.597089C1.23344 0.823479 1.40964 1.00709 1.62689 1.00709H5.13318C5.35043 1.00709 5.52662 0.823479 5.52662 0.597089C5.52662 0.370698 5.35039 0.187085 5.13315 0.187085Z" fill="black"/>
</svg>
