<svg width="11" height="20" viewBox="0 0 11 20" fill="none" xmlns="http://www.w3.org/2000/svg">
<path d="M8.02172 3.8281C8.47705 3.8281 10.304 3.84496 10.3208 3.84496H10.3265C10.4164 3.84496 10.5007 3.81123 10.5626 3.7494C10.6244 3.68756 10.6638 3.59762 10.6638 3.50768V0.365384C10.6638 0.179881 10.512 0.0281064 10.3321 0.0281064C10.2028 0.0281064 7.11106 0 6.89183 0C6.40278 0 5.68887 0.269822 5.1436 0.56775C4.98058 0.657691 4.91874 0.860057 5.00868 1.02307C5.09863 1.18609 5.30099 1.24793 5.46401 1.15799C5.90248 0.91627 6.5152 0.674555 6.88621 0.674555C7.06047 0.674555 9.15161 0.691418 9.98357 0.702661V3.17041C9.42706 3.16479 8.35338 3.15354 8.0161 3.15354C7.0942 3.15354 6.52082 3.96301 6.52082 4.71064V7.27395C6.52082 7.45945 6.6726 7.61122 6.85811 7.61122H9.94422L9.6238 10.4275H6.81876C6.63325 10.4275 6.48147 10.5793 6.48147 10.7648V15.8239C6.48147 16.0094 6.63325 16.1612 6.81876 16.1612C7.00426 16.1612 7.15604 16.0094 7.15604 15.8239V11.102H9.92736C10.1016 11.102 10.2422 10.9728 10.2646 10.8041L10.6581 7.3133C10.6694 7.21773 10.6413 7.12217 10.5738 7.0491C10.512 6.97602 10.4164 6.93667 10.3208 6.93667H7.19539V4.71064C7.20101 4.28342 7.5158 3.8281 8.02172 3.8281Z" fill="white"/>
<path d="M6.81869 14.3796C6.63318 14.3796 6.48141 14.5313 6.48141 14.7168V19.3207H3.64263V10.7988C3.64263 10.6133 3.49085 10.4615 3.30535 10.4615H0.66894V7.56656H3.3447C3.5302 7.56656 3.68198 7.41479 3.68198 7.22929V3.86213C3.68198 3.41805 3.8731 2.85592 4.13731 2.41184C4.23287 2.24882 4.17666 2.04646 4.01926 1.9509C3.85624 1.85533 3.65387 1.91155 3.55831 2.06894C3.23227 2.61983 3.01304 3.30001 3.01304 3.86776V6.89763H0.33728C0.151776 6.89763 0 7.0494 0 7.23491V10.8044C0 10.9899 0.151776 11.1417 0.33728 11.1417H2.96807V19.6636C2.96807 19.8491 3.11984 20.0009 3.30535 20.0009H6.81869C7.00419 20.0009 7.15597 19.8491 7.15597 19.6636V14.7168C7.15597 14.5313 7.00981 14.3796 6.81869 14.3796Z" fill="white"/>
<path d="M3.85066 2.56345C3.9406 2.56345 4.03054 2.52972 4.09238 2.46227C4.43315 1.87203 4.87936 1.49093 5.47523 1.14691C5.61577 1.02324 5.62701 0.80963 5.50334 0.669097C5.37967 0.528565 5.16606 0.517323 5.02552 0.640991C4.42966 0.985011 3.92374 1.44073 3.60332 1.9957C3.47403 2.13061 3.47965 2.34422 3.61456 2.47351C3.68202 2.52972 3.76634 2.56345 3.85066 2.56345Z" fill="white"/>
</svg>
