<svg width="20" height="20" viewBox="0 0 20 20" fill="none" xmlns="http://www.w3.org/2000/svg">
<path d="M7.94763 11.1183H5.8292C5.4871 11.1183 5.38184 10.9867 5.38184 10.6709C5.38184 9.81569 5.38184 8.93411 5.38184 8.07885C5.38184 7.73674 5.51341 7.60516 5.8292 7.60516H7.94763V5.72358C7.92131 4.89463 8.11868 4.05253 8.52657 3.30253C8.96078 2.55253 9.64499 1.9999 10.4345 1.72358C10.9739 1.52621 11.5003 1.44727 12.066 1.44727H14.1582C14.4608 1.44727 14.5924 1.57884 14.5924 1.88148V4.31569C14.5924 4.61832 14.4608 4.7499 14.1582 4.7499C13.5792 4.7499 13.0003 4.7499 12.4213 4.77621C11.8424 4.80253 11.5397 5.05253 11.5397 5.65779C11.5134 6.30253 11.5397 6.92095 11.5397 7.57884H14.0003C14.3424 7.57884 14.4739 7.71042 14.4739 8.05253V10.6446C14.4739 10.9867 14.3687 11.1183 14.0003 11.1183H11.566V18.0788C11.566 18.4473 11.4345 18.5657 11.0792 18.5657H8.40815C8.09236 18.5657 7.96078 18.4341 7.96078 18.1183L7.94763 11.1183Z" fill="white"/>
</svg>
