<svg width="24" height="24" viewBox="0 0 24 24" fill="none" xmlns="http://www.w3.org/2000/svg">
<path fill-rule="evenodd" clip-rule="evenodd" d="M7.15651 18.75H1.875C1.668 18.75 1.5 18.918 1.5 19.125C1.5 19.332 1.668 19.5 1.875 19.5H7.15651C7.33501 20.5635 8.26125 21.375 9.375 21.375C10.4888 21.375 11.415 20.5635 11.5935 19.5H22.125C22.332 19.5 22.5 19.332 22.5 19.125C22.5 18.918 22.332 18.75 22.125 18.75H11.5935C11.415 17.6865 10.4888 16.875 9.375 16.875C8.26125 16.875 7.33501 17.6865 7.15651 18.75ZM9.375 17.625C10.203 17.625 10.875 18.297 10.875 19.125C10.875 19.953 10.203 20.625 9.375 20.625C8.547 20.625 7.875 19.953 7.875 19.125C7.875 18.297 8.547 17.625 9.375 17.625ZM15.0315 11.625H1.875C1.668 11.625 1.5 11.793 1.5 12C1.5 12.207 1.668 12.375 1.875 12.375H15.0315C15.21 13.4385 16.1362 14.25 17.25 14.25C18.3638 14.25 19.29 13.4385 19.4685 12.375H22.125C22.332 12.375 22.5 12.207 22.5 12C22.5 11.793 22.332 11.625 22.125 11.625H19.4685C19.29 10.5615 18.3638 9.75 17.25 9.75C16.1362 9.75 15.21 10.5615 15.0315 11.625ZM17.25 10.5C18.078 10.5 18.75 11.172 18.75 12C18.75 12.828 18.078 13.5 17.25 13.5C16.422 13.5 15.75 12.828 15.75 12C15.75 11.172 16.422 10.5 17.25 10.5ZM4.15651 4.5H1.875C1.668 4.5 1.5 4.668 1.5 4.875C1.5 5.082 1.668 5.25 1.875 5.25H4.15651C4.33501 6.3135 5.26125 7.125 6.375 7.125C7.48875 7.125 8.41499 6.3135 8.59349 5.25H22.125C22.332 5.25 22.5 5.082 22.5 4.875C22.5 4.668 22.332 4.5 22.125 4.5H8.59349C8.41499 3.4365 7.48875 2.625 6.375 2.625C5.26125 2.625 4.33501 3.4365 4.15651 4.5ZM7.875 4.875C7.875 5.703 7.203 6.375 6.375 6.375C5.547 6.375 4.875 5.703 4.875 4.875C4.875 4.047 5.547 3.375 6.375 3.375C7.203 3.375 7.875 4.047 7.875 4.875Z" fill="black"/>
</svg>
