<svg width="30" height="12" viewBox="0 0 30 12" fill="none" xmlns="http://www.w3.org/2000/svg">
<path d="M2.35464 5.63639C2.35396 5.28058 2.4114 4.92695 2.52478 4.58889L0.589392 3.13939C0.201578 3.91673 0 4.77045 0 5.63556C0 6.50067 0.201578 7.35438 0.589392 8.13172L2.52336 6.67917C2.41105 6.34252 2.3541 5.99054 2.35464 5.63639Z" fill="#FBBC05"/>
<path d="M5.7561 2.30622C6.52922 2.30535 7.27855 2.56792 7.87553 3.04888L9.55032 1.41087C8.52974 0.538558 7.22133 0.000512204 5.7561 0.000512204C4.68106 -0.00255856 3.62674 0.29005 2.71327 0.845003C1.79979 1.39996 1.06389 2.19494 0.589392 3.13939L2.52535 4.58889C2.74943 3.92361 3.18249 3.34466 3.7627 2.93472C4.34291 2.52478 5.04059 2.30481 5.7561 2.30622Z" fill="#EA4335"/>
<path d="M5.7561 8.96794C5.04041 8.96926 4.3426 8.74909 3.76237 8.33888C3.18215 7.92868 2.74919 7.34943 2.52535 6.68389L0.589392 8.13339C1.06389 9.07784 1.79979 9.87282 2.71327 10.4278C3.62674 10.9827 4.68106 11.2753 5.7561 11.2723C7.16008 11.2723 8.50167 10.7845 9.50807 9.86857L7.66966 8.47515C7.15072 8.79581 6.49566 8.96794 5.7561 8.96794Z" fill="#34A853"/>
<path d="M11.2509 5.63639C11.2461 5.29113 11.2023 4.94746 11.1202 4.61166H5.7561V6.78911H8.84365C8.68939 7.53149 8.27084 8.10396 7.66966 8.47515L9.50807 9.86857C10.5644 8.90686 11.2509 7.47346 11.2509 5.63639Z" fill="#4285F4"/>
<path d="M2.52336 6.67917L0.588541 8.13172V8.13339L2.5245 6.68389L2.52336 6.67917Z" fill="#34A853"/>
<path d="M29.2094 4.20411L26.008 11.0862H25.0178L26.2073 8.67788L24.0996 4.20337H25.1412L26.6664 7.63299H26.6863L28.1632 4.20337L29.2094 4.20411ZM15.9087 6.33223V9.12031H14.9023V2.23822H17.5649C18.197 2.22155 18.8125 2.43394 19.2894 2.83329C19.7608 3.20568 20.0198 3.73218 20.0122 4.28891C20.0154 4.56908 19.952 4.84626 19.8267 5.0992C19.7014 5.35214 19.5176 5.57415 19.2894 5.74821C18.8265 6.13977 18.2517 6.33223 17.5649 6.33223H15.9087ZM15.9048 3.08696V5.48717H17.5895C17.9562 5.49983 18.3134 5.37292 18.5835 5.13396C18.8434 4.91127 18.9867 4.60746 18.9867 4.2926C18.9867 3.97404 18.8426 3.67024 18.5835 3.45123C18.4512 3.33007 18.2952 3.23542 18.1246 3.17275C17.9539 3.11009 17.772 3.08068 17.5895 3.08622L15.9048 3.08696ZM22.0279 4.20411C22.6664 4.20411 23.1737 4.37666 23.5447 4.71881C23.9156 5.06096 24.0996 5.52921 24.0996 6.12428V8.96988H23.2695V8.32835H23.2335C22.8741 8.85485 22.3989 9.11958 21.8041 9.11958C21.2929 9.11958 20.8698 8.96988 20.5265 8.66608C20.3608 8.52499 20.2289 8.35097 20.14 8.15605C20.0511 7.96113 20.0072 7.74996 20.0114 7.53713C20.0114 7.06077 20.1908 6.68101 20.5541 6.39638C20.9135 6.11617 21.3964 5.97385 21.9988 5.97385C22.5138 5.97385 22.9369 6.06971 23.268 6.25775V6.05792C23.2691 5.91285 23.2379 5.76925 23.1766 5.63673C23.1152 5.50421 23.0252 5.38584 22.9124 5.28955C22.6852 5.08498 22.385 4.97225 22.0739 4.97468C21.591 4.97468 21.2078 5.17821 20.9242 5.58525L20.1616 5.10889C20.5809 4.5057 21.2032 4.20263 22.0256 4.20263L22.0279 4.20411ZM20.9066 7.55704C20.9049 7.66631 20.93 7.77443 20.98 7.87259C21.0299 7.97074 21.1033 8.05616 21.194 8.12188C21.3856 8.27157 21.6255 8.35268 21.8685 8.34826C22.2318 8.34826 22.5828 8.20226 22.8426 7.94491C23.1178 7.69935 23.2741 7.35352 23.2741 6.99219C23.0028 6.77688 22.6273 6.66922 22.1444 6.66922C21.7888 6.66922 21.4975 6.75402 21.2622 6.92288C21.0269 7.09543 20.9066 7.30411 20.9066 7.55704Z" fill="white"/>
</svg>
