<svg width="24" height="24" viewBox="0 0 24 24" fill="none" xmlns="http://www.w3.org/2000/svg">
<path d="M16.95 2C14.9792 2.00302 13.1329 2.95633 12 4.5556C10.8671 2.95633 9.02083 2.00302 7.05 2C3.82699 2 1 4.97393 1 8.36369C1 11.6673 2.88096 15.0699 6.43984 18.2038C8.08877 19.653 9.89758 20.9128 11.8317 21.9595C11.9373 22.0135 12.0627 22.0135 12.1683 21.9595C14.1017 20.9128 15.91 19.6529 17.5584 18.2038C21.119 15.0699 23 11.6673 23 8.36369C23 4.97393 20.173 2 16.95 2ZM12 21.223C10.6533 20.486 1.73333 15.3368 1.73333 8.36369C1.73333 5.36118 4.21746 2.72728 7.05 2.72728C8.96891 2.73065 10.7378 3.7573 11.6806 5.41498C11.7511 5.52187 11.8713 5.58615 12 5.58615C12.1287 5.58615 12.2489 5.52187 12.3194 5.41498C13.2622 3.7573 15.0311 2.73065 16.95 2.72728C19.7825 2.72728 22.2667 5.36118 22.2667 8.36369C22.2667 15.3368 13.3467 20.486 12 21.223Z" fill="black"/>
</svg>
