<svg width="21" height="19" viewBox="0 0 21 19" fill="none" xmlns="http://www.w3.org/2000/svg">
<path d="M21 5.75217C21 2.58025 18.3615 0 15.12 0C13.2972 0 11.6113 0.812711 10.5 2.20144C9.38868 0.812711 7.70282 0 5.88 0C2.63759 0 0 2.58025 0 5.75217C0 5.8516 0.00504492 5.94858 0.0125918 6.06197C0.00418359 6.09483 0 6.12854 0 6.16304C0 13.834 9.61464 18.9 10.5 18.9C11.3854 18.9 21 13.834 21 6.16304C21 6.12934 20.9958 6.09732 20.9865 6.06606C20.9941 5.96254 21 5.85818 21 5.75217ZM20.1583 6.27643C20.0668 13.2464 11.5139 17.9574 10.5143 18.0791C9.48359 17.9574 0.909727 13.2341 0.84 6.24931C0.855135 6.19755 0.86018 6.1425 0.856816 6.09234C0.848408 5.97895 0.84 5.86717 0.84 5.75213C0.84 3.03301 3.10045 0.821699 5.88 0.821699C7.61964 0.821699 9.21395 1.68617 10.1447 3.13324C10.2211 3.25321 10.3555 3.32552 10.5 3.32552C10.6445 3.32552 10.778 3.25321 10.8553 3.13324C11.7869 1.68617 13.3812 0.821699 15.12 0.821699C17.8995 0.821699 20.16 3.03301 20.16 5.75213C20.16 5.87949 20.1499 6.00439 20.139 6.13179C20.1356 6.18114 20.1424 6.22961 20.1583 6.27643Z" fill="black"/>
</svg>
