<svg width="18" height="17" viewBox="0 0 18 17" fill="none" xmlns="http://www.w3.org/2000/svg">
<path d="M17.9965 5.17391C17.9965 2.32086 15.7354 0 12.9575 0C11.3954 0 9.95061 0.73101 8.99823 1.98013C8.04586 0.73101 6.60112 0 5.03901 0C2.26035 0 0 2.32086 0 5.17391C0 5.26334 0.00432337 5.35058 0.0107909 5.45257C0.00358523 5.48212 0 5.51244 0 5.54348C0 12.4433 8.2395 17 8.99823 17C9.75697 17 17.9965 12.4433 17.9965 5.54348C17.9965 5.51316 18.0044 5.44843 17.9965 5.42032C18.003 5.32721 17.9965 5.26926 17.9965 5.17391Z" fill="white"/>
</svg>
