<svg width="20" height="20" viewBox="0 0 20 20" fill="none" xmlns="http://www.w3.org/2000/svg">
<path fill-rule="evenodd" clip-rule="evenodd" d="M0 4.7619C0 2.13198 2.13198 0 4.7619 0H15.2381C17.868 0 20 2.13198 20 4.7619V15.2381C20 17.868 17.868 20 15.2381 20H4.7619C2.13198 20 0 17.868 0 15.2381V4.7619ZM4.7619 0.952381C2.65796 0.952381 0.952381 2.65796 0.952381 4.7619V15.2381C0.952381 17.342 2.65796 19.0476 4.7619 19.0476H15.2381C17.342 19.0476 19.0476 17.342 19.0476 15.2381V4.7619C19.0476 2.65796 17.342 0.952381 15.2381 0.952381H4.7619Z" fill="white"/>
<path fill-rule="evenodd" clip-rule="evenodd" d="M9.99981 5.71386C7.63288 5.71386 5.7141 7.63264 5.7141 9.99957C5.7141 12.3665 7.63288 14.2853 9.99981 14.2853C12.3668 14.2853 14.2855 12.3665 14.2855 9.99957C14.2855 7.63264 12.3668 5.71386 9.99981 5.71386ZM4.76172 9.99957C4.76172 7.10665 7.10689 4.76147 9.99981 4.76147C12.8928 4.76147 15.2379 7.10665 15.2379 9.99957C15.2379 12.8925 12.8928 15.2377 9.99981 15.2377C7.10689 15.2377 4.76172 12.8925 4.76172 9.99957Z" fill="white"/>
<path fill-rule="evenodd" clip-rule="evenodd" d="M15.7142 3.80907C15.4513 3.80907 15.238 4.02227 15.238 4.28526C15.238 4.54825 15.4513 4.76145 15.7142 4.76145C15.9772 4.76145 16.1904 4.54825 16.1904 4.28526C16.1904 4.02227 15.9772 3.80907 15.7142 3.80907ZM14.2856 4.28526C14.2856 3.49628 14.9253 2.85669 15.7142 2.85669C16.5032 2.85669 17.1428 3.49628 17.1428 4.28526C17.1428 5.07424 16.5032 5.71383 15.7142 5.71383C14.9253 5.71383 14.2856 5.07424 14.2856 4.28526Z" fill="white"/>
</svg>
