<svg width="16" height="17" viewBox="0 0 16 17" fill="none" xmlns="http://www.w3.org/2000/svg">
<path d="M14.9167 8.79167L12.3333 11.375C12.25 11.4583 12.125 11.5 12.0417 11.5C11.9167 11.5 11.8333 11.4583 11.75 11.375C11.5833 11.2083 11.5833 10.9583 11.75 10.7917L13.75 8.79167H5.29167C5.04167 8.79167 4.875 8.625 4.875 8.375C4.875 8.125 5.04167 7.95833 5.29167 7.95833H13.75L11.75 5.95833C11.5833 5.79167 11.5833 5.54167 11.75 5.375C11.9167 5.20833 12.1667 5.20833 12.3333 5.375L14.9167 7.95833C15.125 8.16667 15.125 8.58333 14.9167 8.79167ZM10.5833 14.5833V12.4583C10.5833 12.2083 10.4167 12.0417 10.1667 12.0417C9.91667 12.0417 9.75 12.2083 9.75 12.4583V14.5833C9.75 15.0833 9.33333 15.5 8.83333 15.5H1.75C1.25 15.5 0.833333 15.0833 0.833333 14.5833V1.75C0.833333 1.25 1.25 0.833333 1.75 0.833333H8.79167C9.29167 0.833333 9.70833 1.25 9.70833 1.75V3.875C9.70833 4.125 9.875 4.29167 10.125 4.29167C10.375 4.29167 10.5417 4.125 10.5417 3.875V1.75C10.5417 0.791667 9.75 0 8.79167 0H1.75C0.791667 0 0 0.791667 0 1.75V14.5833C0 15.5417 0.791667 16.3333 1.75 16.3333H8.79167C9.79167 16.375 10.5833 15.5833 10.5833 14.5833Z" fill="white"/>
</svg>
