<svg width="132" height="28" viewBox="0 0 132 28" fill="none" xmlns="http://www.w3.org/2000/svg">
<path d="M123.245 8.92346C124.749 8.92346 126.101 9.25017 127.299 9.90358C128.498 10.557 129.45 11.5838 130.155 12.984C130.884 14.3841 131.249 16.2044 131.249 18.4446C131.249 20.6849 130.884 22.5051 130.155 23.9053C129.45 25.2821 128.498 26.2973 127.299 26.9507C126.101 27.6041 124.749 27.9308 123.245 27.9308C121.764 27.9308 120.412 27.6041 119.19 26.9507C117.991 26.2973 117.027 25.2821 116.298 23.9053C115.593 22.5051 115.24 20.6849 115.24 18.4446C115.24 16.2044 115.593 14.3841 116.298 12.984C117.027 11.5838 117.991 10.557 119.19 9.90358C120.412 9.25017 121.764 8.92346 123.245 8.92346ZM123.245 9.62355C121.905 9.62355 120.8 10.312 119.93 11.6888C119.084 13.0656 118.661 15.3176 118.661 18.4446C118.661 21.5717 119.084 23.8236 119.93 25.2005C120.8 26.554 121.905 27.2307 123.245 27.2307C124.584 27.2307 125.677 26.554 126.524 25.2005C127.393 23.8236 127.828 21.5717 127.828 18.4446C127.828 15.3176 127.393 13.0656 126.524 11.6888C125.677 10.312 124.584 9.62355 123.245 9.62355Z" fill="black"/>
<path d="M110.411 0.663818C111.022 0.663818 111.551 0.885512 111.998 1.3289C112.444 1.77229 112.668 2.29735 112.668 2.90409C112.668 3.51083 112.444 4.0359 111.998 4.47929C111.551 4.92267 111.022 5.14437 110.411 5.14437C109.8 5.14437 109.271 4.92267 108.824 4.47929C108.378 4.0359 108.154 3.51083 108.154 2.90409C108.154 2.29735 108.378 1.77229 108.824 1.3289C109.271 0.885512 109.8 0.663818 110.411 0.663818ZM112.245 9.02984V24.1867C112.245 25.1668 112.444 25.8319 112.844 26.1819C113.267 26.532 113.961 26.707 114.924 26.707V27.4421C114.525 27.4188 113.914 27.3954 113.091 27.3721C112.292 27.3254 111.481 27.3021 110.658 27.3021C109.859 27.3021 109.048 27.3254 108.225 27.3721C107.402 27.3954 106.791 27.4188 106.391 27.4421V26.707C107.355 26.707 108.037 26.532 108.436 26.1819C108.86 25.8319 109.071 25.1668 109.071 24.1867V13.2304C109.071 12.1802 108.883 11.4101 108.507 10.9201C108.131 10.4067 107.426 10.15 106.391 10.15V9.41489C107.144 9.4849 107.872 9.51991 108.577 9.51991C109.259 9.51991 109.906 9.4849 110.517 9.41489C111.151 9.32154 111.727 9.1932 112.245 9.02984Z" fill="black"/>
<path d="M104.062 0V23.6279C104.062 24.678 104.25 25.4598 104.627 25.9732C105.026 26.4633 105.731 26.7083 106.742 26.7083V27.4434C106.013 27.3734 105.285 27.3384 104.556 27.3384C103.874 27.3384 103.216 27.3734 102.581 27.4434C101.97 27.5134 101.406 27.6417 100.889 27.8284V4.20052C100.889 3.15039 100.701 2.38029 100.325 1.89023C99.9487 1.37684 99.2435 1.12014 98.2092 1.12014V0.385046C98.9615 0.455055 99.6902 0.49006 100.395 0.49006C101.077 0.49006 101.723 0.455055 102.335 0.385046C102.969 0.291703 103.545 0.163354 104.062 0ZM96.6578 8.9261C97.6921 8.9261 98.6559 9.17113 99.5491 9.66119C100.466 10.1512 101.077 10.9914 101.383 12.1815L100.924 12.5315C100.595 11.5514 100.078 10.8397 99.3728 10.3963C98.6911 9.95289 97.8801 9.7312 96.9399 9.7312C95.553 9.7312 94.3894 10.443 93.4491 11.8665C92.5324 13.29 92.0857 15.4836 92.1093 18.4473C92.1093 20.3375 92.2855 21.9127 92.6381 23.1728C93.0143 24.4097 93.5549 25.3431 94.2601 25.9732C94.9888 26.5799 95.8703 26.8833 96.9046 26.8833C97.8919 26.8833 98.7852 26.4633 99.5844 25.6232C100.384 24.783 100.865 23.5462 101.03 21.9127L101.453 22.4028C101.265 24.1763 100.689 25.5415 99.7254 26.4983C98.7851 27.455 97.504 27.9334 95.8821 27.9334C94.4247 27.9334 93.1435 27.5834 92.0387 26.8833C90.9574 26.1832 90.1229 25.1331 89.5353 23.7329C88.9711 22.3327 88.689 20.5709 88.689 18.4473C88.689 16.3237 89.0534 14.5618 89.7821 13.1616C90.5343 11.7381 91.5098 10.6763 92.7087 9.97623C93.931 9.27614 95.2474 8.9261 96.6578 8.9261Z" fill="black"/>
<path d="M85.5907 9V23.6318C85.5907 24.6819 85.7788 25.4637 86.1549 25.9771C86.5545 26.4672 87.2597 26.7122 88.2705 26.7122V27.4473C87.5418 27.3773 86.8131 27.3423 86.0844 27.3423C85.4027 27.3423 84.7445 27.3773 84.1098 27.4473C83.4986 27.5173 82.9345 27.6456 82.4173 27.8323V23.7018C81.8296 25.2187 80.9951 26.3038 79.9138 26.9572C78.856 27.5873 77.763 27.9023 76.6347 27.9023C75.8119 27.9023 75.095 27.7856 74.4838 27.5523C73.8726 27.3189 73.3672 26.9922 72.9676 26.5722C72.521 26.1054 72.2154 25.4987 72.0509 24.7519C71.8863 24.0052 71.804 23.0834 71.804 21.9866V13.2005C71.804 12.1504 71.616 11.3803 71.2399 10.8902C70.8638 10.3768 70.1586 10.1201 69.1243 10.1201V9.49828C69.8765 9.56829 70.6067 9.49828 71.3119 9.49828C71.9936 9.49828 72.6385 9.45506 73.2497 9.38505C73.8844 9.2917 74.4603 9.16335 74.9774 9V22.7567C74.9774 23.4801 75.0244 24.1452 75.1185 24.7519C75.2125 25.3587 75.4476 25.8487 75.8237 26.2221C76.1998 26.5955 76.811 26.7822 77.6572 26.7822C78.574 26.7822 79.3849 26.5022 80.0901 25.9421C80.8189 25.382 81.383 24.6236 81.7826 23.6668C82.2057 22.71 82.4173 21.6366 82.4173 20.4464V13.2005C82.4173 12.1504 82.2293 11.3803 81.8531 10.8902C81.477 10.3768 80.7718 10.1201 79.7375 10.1201V9.38505C80.4898 9.45506 81.2185 9.49006 81.9237 9.49006C82.6054 9.49006 83.2518 9.45506 83.863 9.38505C84.4977 9.2917 85.0736 9.16335 85.5907 9Z" fill="black"/>
<path d="M64.9743 3.60559V9.45131H74.2798V10.1514H64.9743V24.9726C63.9092 26.414 63.0796 27.0317 61.8351 25.3844C61.8351 24.5608 61.8009 23.1147 61.8009 21.8778V10.1514H58.416V9.45131H61.8009V4.09565C62.3886 4.07232 62.9527 4.02564 63.4934 3.95564C64.0341 3.88563 64.5277 3.76894 64.9743 3.60559Z" fill="black"/>
<path d="M65.5745 26.564C65.1773 26.2125 64.9787 25.5446 64.9787 24.5603H61.8246C61.8246 25.5446 61.6494 26.2125 61.2989 26.564C60.9485 26.9155 60.3527 27.0913 59.5116 27.0913V27.8295C59.8854 27.806 60.4345 27.7826 61.1587 27.7592C61.9064 27.7123 62.6657 27.6889 63.4367 27.6889C64.2077 27.6889 65.0021 27.7123 65.8198 27.7592C66.6375 27.7826 67.245 27.806 67.6421 27.8295V27.0913C66.6842 27.0913 65.995 26.9155 65.5745 26.564Z" fill="black"/>
<path d="M51.9536 8.92346C52.8939 8.92346 53.6931 9.07515 54.3513 9.37852C55.0095 9.68189 55.4914 9.96192 55.797 10.2186C56.5727 10.8487 57.0428 10.4286 57.2074 8.95847H58.0184C57.9714 9.61188 57.9361 10.3936 57.9126 11.3038C57.8891 12.1905 57.8773 13.3923 57.8773 14.9092H57.0663C56.9253 14.0458 56.6785 13.2057 56.3259 12.3889C55.9968 11.5721 55.5032 10.907 54.845 10.3936C54.1868 9.85691 53.3288 9.58854 52.271 9.58854C51.4482 9.58854 50.7548 9.82191 50.1906 10.2886C49.65 10.732 49.3797 11.3971 49.3797 12.2839C49.3797 12.984 49.5912 13.5907 50.0143 14.1041C50.4375 14.5942 50.9899 15.0609 51.6716 15.5043C52.3533 15.9243 53.0937 16.391 53.8929 16.9044C54.7862 17.4645 55.5972 18.0363 56.3259 18.6197C57.0546 19.2031 57.6305 19.8448 58.0536 20.5449C58.5003 21.245 58.7236 22.0734 58.7236 23.0302C58.7236 24.1037 58.4415 25.0021 57.8773 25.7255C57.3132 26.4489 56.5727 26.9974 55.6559 27.3707C54.7627 27.7441 53.7754 27.9308 52.6941 27.9308C52.177 27.9308 51.6833 27.8841 51.2132 27.7908C50.7666 27.7208 50.3317 27.6041 49.9086 27.4407C49.6735 27.3241 49.4267 27.184 49.1681 27.0207C48.933 26.8573 48.698 26.6823 48.4629 26.4956C48.2278 26.3089 48.0163 26.3206 47.8282 26.5306C47.6402 26.7173 47.4991 27.1024 47.4051 27.6858H46.5941C46.6411 26.939 46.6764 26.0289 46.6999 24.9554C46.7234 23.882 46.7352 22.4585 46.7352 20.6849H47.5461C47.7107 21.9917 47.9458 23.1352 48.2513 24.1153C48.5569 25.0955 49.0388 25.8655 49.697 26.4256C50.3552 26.9623 51.2719 27.2307 52.4473 27.2307C52.9174 27.2307 53.3876 27.1257 53.8577 26.9157C54.3513 26.7056 54.7627 26.3556 55.0918 25.8655C55.4209 25.3755 55.5854 24.7221 55.5854 23.9053C55.5854 22.8785 55.2093 22.0384 54.4571 21.385C53.7049 20.7316 52.7529 20.0432 51.601 19.3197C50.7548 18.783 49.9556 18.2463 49.2034 17.7095C48.4747 17.1728 47.8752 16.5661 47.4051 15.8893C46.9585 15.2126 46.7352 14.3958 46.7352 13.439C46.7352 12.3889 46.9702 11.5371 47.4404 10.8837C47.934 10.207 48.5804 9.71689 49.3797 9.41352C50.1789 9.08681 51.0369 8.92346 51.9536 8.92346Z" fill="black"/>
<path d="M33.1888 8.91223C34.0149 8.91224 34.735 9.02939 35.3488 9.26372C35.9625 9.49807 36.4698 9.82641 36.8711 10.2482C37.3196 10.7169 37.6267 11.3261 37.7919 12.0761C37.9572 12.8259 38.0398 13.7516 38.0399 14.853V24.2387C38.0399 25.2229 38.2405 25.8911 38.6418 26.2427C39.0668 26.5941 39.7632 26.7699 40.7309 26.7699V27.5079C40.3296 27.4844 39.7156 27.4613 38.8893 27.4379C38.0632 27.391 37.2607 27.3675 36.4818 27.3675C35.7028 27.3675 34.9354 27.391 34.18 27.4379C33.4483 27.4613 32.8936 27.4844 32.5159 27.5079V26.7699C33.3657 26.7699 33.9677 26.5942 34.3218 26.2427C34.6759 25.8911 34.8529 25.2229 34.8529 24.2387V14.0796C34.8529 13.3532 34.8055 12.6853 34.7111 12.0761C34.6167 11.4668 34.3807 10.9747 34.003 10.5997C33.6253 10.2248 33.0116 10.0371 32.1618 10.0371C31.2412 10.0371 30.4148 10.3184 29.683 10.8808C28.9748 11.4433 28.4085 12.2051 27.9836 13.1659C27.5823 14.1267 27.3816 15.2046 27.3816 16.3997V24.2387C27.3816 25.2229 27.5823 25.8911 27.9836 26.2427C28.4085 26.5941 29.105 26.7699 30.0727 26.7699V27.5079C29.6714 27.4844 29.0576 27.4613 28.2315 27.4379C27.4053 27.391 26.6026 27.3675 25.8236 27.3675C25.0446 27.3675 24.2772 27.391 23.5218 27.4379C22.7901 27.4613 22.2353 27.4844 21.8577 27.5079V26.7699C22.7075 26.7699 23.3095 26.5942 23.6636 26.2427C24.0177 25.8911 24.1947 25.2229 24.1947 24.2387V14.0796C24.1947 13.3532 24.1473 12.6853 24.0529 12.0761C23.9585 11.4668 23.7225 10.9747 23.3448 10.5997C22.9671 10.2248 21.9386 10.0371 21.0888 10.0371C20.1681 10.0371 19.3418 10.3184 18.61 10.8808C17.9238 11.4258 17.3713 12.1691 16.9511 13.11V23.7114C16.9511 24.766 17.1401 25.5513 17.5178 26.0669C17.9191 26.5589 18.6272 26.8049 19.6422 26.8049L19.6519 27.5083H13.7641V23.7818C13.174 25.3051 12.336 26.3948 11.2501 27.051C10.1878 27.6837 8.67525 28.0001 7.54218 28.0001C6.71603 28.0001 5.9959 27.883 5.38218 27.6486C4.76855 27.4143 4.26106 27.0863 3.85981 26.6645C3.41129 26.1958 3.10426 25.5862 2.93901 24.8363C2.77379 24.0864 2.69109 23.1607 2.69109 22.0594V13.2363C2.69109 12.1818 2.50241 11.4083 2.12476 10.9162C1.74706 10.4006 1.03867 10.1429 0 10.1429V9.40448C0.755398 9.47478 1.48747 9.50985 2.19565 9.50985C2.88016 9.50984 3.52927 9.47478 4.14297 9.40448C4.78029 9.31075 5.35872 9.18203 5.87802 9.018V22.8327C5.87802 23.5591 5.9254 24.227 6.01981 24.8363C6.11423 25.4456 6.35023 25.9381 6.72793 26.313C7.10562 26.6879 7.71941 26.8752 8.56911 26.8753C9.48973 26.8753 10.7189 26.5939 11.4271 26.0315C12.1589 25.4691 12.7256 24.7076 13.1269 23.7468C13.5518 22.786 13.7641 21.7078 13.7641 20.5126V13.2363C13.7641 12.1818 13.5754 11.4084 13.1978 10.9162C12.8201 10.4006 12.1117 10.1429 11.073 10.1429V9.40448C11.8284 9.47478 12.5605 9.50985 13.2687 9.50985C13.9532 9.50984 14.6023 9.47478 15.216 9.40448C15.8534 9.31074 16.4318 9.18203 16.9511 9.018V11.8621C17.4691 11.0024 18.0931 10.3474 18.8226 9.89673C19.8849 9.24056 21.3974 8.91223 22.5305 8.91223C23.3567 8.91224 24.0768 9.02938 24.6905 9.26372C25.3043 9.49807 25.8116 9.82641 26.2129 10.2482C26.6614 10.7169 26.9685 11.3261 27.1337 12.0761C27.2013 12.3827 27.2538 12.7189 27.2937 13.0843C27.9292 11.4926 28.7846 10.4066 29.86 9.82635C30.9459 9.21704 32.0557 8.91223 33.1888 8.91223Z" fill="black"/>
<path d="M123.373 14C124.163 16.0014 125.747 17.5856 127.748 18.3749C125.747 19.1643 124.163 20.7485 123.373 22.7499C122.584 20.7485 121 19.1643 118.999 18.3749C121 17.5856 122.584 16.0014 123.373 14Z" fill="black"/>
</svg>
