<svg width="14" height="19" viewBox="0 0 14 19" fill="none" xmlns="http://www.w3.org/2000/svg">
<path d="M6.55583 16.5562C6.42458 16.5562 6.30583 16.475 6.26208 16.3563C5.81208 15.7437 5.39958 15.1875 5.01833 14.6812L4.59958 14.125C1.06833 9.375 0.530829 8.64375 0.487079 6.01875C0.462079 4.45 1.06208 2.96875 2.17458 1.83125C3.31833 0.66875 4.91833 0 6.56208 0C8.20583 0 9.80583 0.66875 10.9496 1.83125C12.0621 2.9625 12.6558 4.45 12.6308 6.0125C12.5871 8.6375 12.0433 9.36875 8.52458 14.1125L8.22458 14.5125C7.79958 15.075 7.34333 15.6937 6.83708 16.3812C6.81833 16.4187 6.78708 16.4563 6.75583 16.4813C6.70583 16.5312 6.63708 16.5562 6.55583 16.5562ZM6.56208 0.625C5.08083 0.625 3.64958 1.225 2.61833 2.26875C1.62458 3.28125 1.08708 4.60625 1.11208 6.00625C1.15583 8.43125 1.60583 9.0375 5.10583 13.7563L5.52458 14.3125C5.84958 14.7437 6.19333 15.2062 6.56833 15.7125C6.98708 15.1437 7.36833 14.625 7.73083 14.15L8.03083 13.75C11.5246 9.0375 11.9746 8.4375 12.0121 6.00625C12.0371 4.6125 11.5058 3.2875 10.5121 2.275C9.48083 1.225 8.04333 0.625 6.56208 0.625Z" fill="black"/>
<path d="M6.5625 18.125C3.3 18.125 0 17.375 0 15.9375C0 14.6562 2.68125 13.9937 4.975 13.8187L5.025 14.4437C2.025 14.675 0.625 15.4687 0.625 15.9375C0.625 16.5875 2.88125 17.5 6.5625 17.5C10.2437 17.5 12.5 16.5875 12.5 15.9375C12.5 15.4687 11.1 14.6687 8.1 14.4437L8.15 13.8187C10.4438 13.9937 13.125 14.6562 13.125 15.9375C13.125 17.375 9.825 18.125 6.5625 18.125Z" fill="black"/>
<path d="M6.56211 8.91249C4.99961 8.91249 3.72461 7.63749 3.72461 6.07499C3.72461 4.51249 4.99961 3.23749 6.56211 3.23749C8.12461 3.23749 9.39961 4.50624 9.39961 6.07499C9.39961 7.64374 8.12461 8.91249 6.56211 8.91249ZM6.56211 3.86249C5.34336 3.86249 4.34961 4.85624 4.34961 6.07499C4.34961 7.29374 5.34336 8.28749 6.56211 8.28749C7.78086 8.28749 8.77461 7.29374 8.77461 6.07499C8.76836 4.85624 7.78086 3.86249 6.56211 3.86249Z" fill="black"/>
</svg>
