<svg width="20" height="20" viewBox="0 0 20 20" fill="none" xmlns="http://www.w3.org/2000/svg">
<path d="M19.4821 13.9452C19.3797 12.8673 18.8401 11.8862 17.9626 11.1828C17.6242 10.9115 17.2399 10.6847 16.8161 10.5041V5.64382C16.8161 5.54105 16.7625 5.44608 16.6755 5.3947L9.29867 1.03854C9.21166 0.987154 9.10443 0.987154 9.01742 1.03854L1.64062 5.3947C1.55358 5.44608 1.5 5.54105 1.5 5.64382V14.3562C1.5 14.4589 1.55358 14.5539 1.64062 14.6053L9.01742 18.9615C9.06091 18.9871 9.10949 19 9.15804 19C9.20659 19 9.25518 18.9872 9.29867 18.9615L16.6755 14.6053C16.7333 14.5711 16.7759 14.5176 16.7983 14.4554C16.9901 14.7086 17.123 14.9925 17.1858 15.2917C17.4177 16.3969 16.7188 17.4716 15.3619 18.0961C15.2316 18.1561 15.1659 18.3065 15.2093 18.4457C15.247 18.5669 15.3568 18.6462 15.4771 18.6461C15.495 18.6461 15.5132 18.6444 15.5314 18.6407C16.8334 18.3794 17.8989 17.7599 18.6129 16.8492C19.2716 16.0092 19.5803 14.9779 19.4821 13.9452ZM9.15804 9.66783L7.10177 8.45356L13.9161 4.42954L15.9723 5.64382L9.15804 9.66783ZM4.96249 7.19027L11.7768 3.16626L13.3536 4.0974L6.53927 8.12141L4.96249 7.19027ZM6.25806 8.61965L6.25802 11.3861L4.68127 10.455L4.68124 7.68851L6.25806 8.61965ZM9.15804 1.61984L11.2143 2.83411L4.39999 6.85809L2.34375 5.64382L9.15804 1.61984ZM2.0625 6.14209L4.11874 7.35636L4.11877 10.621C4.11877 10.7238 4.17235 10.8188 4.2594 10.8702L6.39865 12.1334C6.44213 12.1591 6.49072 12.172 6.53927 12.172C6.58782 12.172 6.63641 12.1591 6.67989 12.1334C6.76694 12.082 6.82052 11.9871 6.82052 11.8843L6.82055 8.95183L8.8768 10.1661V18.2141L2.0625 14.1901V6.14209ZM9.43929 18.2141V10.1661L16.2536 6.14209V10.2988C15.6686 10.1183 15.023 10.015 14.3294 9.99318V9.06283C14.3294 8.95111 14.2661 8.84946 14.1672 8.80221C14.0682 8.75492 13.9514 8.77053 13.8676 8.84223L10.6161 11.6258C10.5498 11.6825 10.5127 11.7672 10.5155 11.8556C10.5183 11.9439 10.5606 12.026 10.6302 12.0783L13.8818 14.5182C13.9673 14.5824 14.0807 14.5919 14.1753 14.5429C14.2698 14.4939 14.3294 14.3947 14.3294 14.2863V13.3192C15.0742 13.3601 15.7285 13.565 16.2347 13.918C16.2412 13.9225 16.2473 13.9273 16.2536 13.9318V14.1901L9.43929 18.2141ZM17.2125 17.3685C17.282 17.2757 17.3456 17.1803 17.4032 17.0824C17.757 16.4809 17.872 15.82 17.7358 15.171C17.5927 14.4891 17.1721 13.8753 16.5515 13.4426C15.8887 12.9804 15.023 12.7361 14.0481 12.7361C13.8928 12.7361 13.7669 12.865 13.7669 13.0238V13.7184L11.2522 11.8314L13.7669 9.67865V10.2764C13.7669 10.4353 13.8928 10.5641 14.0481 10.5641C17.4048 10.5641 18.7716 12.4154 18.9223 14.0008C19.0327 15.1626 18.5154 16.5162 17.2125 17.3685Z" fill="white"/>
</svg>
