<svg width="16" height="15" viewBox="0 0 16 15" fill="none" xmlns="http://www.w3.org/2000/svg">
<path fill-rule="evenodd" clip-rule="evenodd" d="M6.86247 0.0840703L8.88497 1.25176L2.32781 5.03754V7.84282C2.32781 7.95491 2.38337 8.05116 2.48047 8.10723L4.00041 8.98476C4.04894 9.01279 4.1045 9.01279 4.15306 8.98476C4.20159 8.95673 4.22937 8.9086 4.22937 8.85257V6.13541L10.7866 2.34963L12.8091 3.51732C13.0032 3.62941 13.1144 3.82191 13.1144 4.0461V7.55516C12.5653 7.36995 11.9843 7.27004 11.404 7.23463V6.99938C11.404 6.74307 11.2577 6.51323 11.0254 6.40479C10.7933 6.29638 10.523 6.3317 10.3265 6.49613L7.99844 8.44466C7.80531 8.60629 7.69978 8.84198 7.70784 9.09366C7.71591 9.34641 7.83544 9.57323 8.03931 9.72282L10.3596 11.4251C10.5599 11.5721 10.8227 11.5937 11.0443 11.4814C11.2663 11.3689 11.404 11.1448 11.404 10.896V10.6363C11.8869 10.6939 12.3649 10.8423 12.7575 11.1265C12.8336 11.1816 12.9058 11.2417 12.973 11.3062C12.9281 11.3589 12.8731 11.4045 12.8091 11.4414L6.86247 14.8747C6.66831 14.9868 6.44603 14.9868 6.25187 14.8747L0.305312 11.4414C0.111125 11.3294 0 11.1369 0 10.9126V4.04613C0 3.82191 0.111125 3.62941 0.305312 3.51735L6.25191 0.0840703C6.44606 -0.0280234 6.66831 -0.0280234 6.86247 0.0840703ZM10.904 10.1073C14.1693 10.1073 15.0947 13.226 12.4126 14.6278C12.3978 14.6354 12.3916 14.653 12.3983 14.6682C12.4046 14.6823 12.4196 14.6897 12.4345 14.686C16.8907 13.5899 16.5791 7.7196 10.904 7.7196V6.99938C10.904 6.93726 10.8701 6.8841 10.8138 6.85782C10.7576 6.83154 10.6951 6.8397 10.6474 6.87957L8.31934 8.82813C8.24322 8.89185 8.20441 8.97854 8.20756 9.07776C8.21075 9.17698 8.25503 9.26101 8.33506 9.31973L10.6553 11.022C10.704 11.0577 10.7645 11.0627 10.8183 11.0354C10.8722 11.0081 10.904 10.9564 10.904 10.896V10.1073Z" fill="black"/>
</svg>
