<svg width="24" height="24" viewBox="0 0 24 24" fill="none" xmlns="http://www.w3.org/2000/svg">
<path d="M21.6164 20.0301L19.7431 6.91703C19.6674 6.40241 19.4097 5.932 19.0167 5.5912C18.6238 5.2504 18.1216 5.0618 17.6015 5.05965H15.8466L15.494 4.00196C14.3834 0.667736 9.61746 0.664278 8.50572 4.002L8.15309 5.05965H6.39822C5.87807 5.06179 5.37594 5.25039 4.98299 5.59119C4.59004 5.93199 4.33232 6.40241 4.25663 6.91702L2.38329 20.0301C2.34178 20.3365 2.36603 20.6483 2.45443 20.9447C2.54283 21.241 2.69336 21.5152 2.89598 21.7488C3.09861 21.9824 3.34869 22.1702 3.62956 22.2997C3.91044 22.4291 4.21566 22.4972 4.52492 22.4995L19.4748 22.4995C19.784 22.4972 20.0893 22.4291 20.3701 22.2997C20.651 22.1703 20.9011 21.9825 21.1037 21.7488C21.3063 21.5152 21.4569 21.2411 21.5453 20.9447C21.6337 20.6483 21.6579 20.3365 21.6164 20.0301ZM9.2178 4.23944C10.0869 1.58724 13.9133 1.58782 14.7819 4.23949L15.0553 5.05965H8.94436L9.2178 4.23944ZM20.5422 21.2619C20.4095 21.4147 20.2456 21.5373 20.0614 21.6214C19.8773 21.7054 19.6772 21.7489 19.4748 21.7489H4.52489C4.32293 21.7475 4.1236 21.703 3.94017 21.6185C3.75675 21.5339 3.59343 21.4113 3.4611 21.2587C3.32877 21.1062 3.23045 20.9272 3.17271 20.7336C3.11496 20.5401 3.09911 20.3365 3.1262 20.1363L4.99949 7.02331C5.04894 6.68721 5.21726 6.37998 5.4739 6.1574C5.73055 5.93482 6.05849 5.81164 6.39821 5.81022H17.6015C17.9412 5.81164 18.2691 5.93482 18.5258 6.1574C18.7824 6.37998 18.9507 6.68721 19.0002 7.02331L20.8735 20.1364C20.9021 20.3368 20.8874 20.541 20.8302 20.7351C20.7731 20.9293 20.6748 21.1089 20.5422 21.2619Z" fill="black"/>
<path d="M15.6948 8.65528C15.6481 8.63956 15.5987 8.63323 15.5495 8.63664C15.5003 8.64006 15.4523 8.65316 15.4082 8.67519C15.3641 8.69723 15.3247 8.72776 15.2925 8.76503C15.2602 8.80231 15.2356 8.84559 15.2201 8.8924L14.7819 10.207C13.9128 12.8586 10.0866 12.8582 9.21787 10.2069L8.77971 8.8924C8.74811 8.79812 8.68037 8.72023 8.59139 8.67584C8.5024 8.63145 8.39944 8.62419 8.30511 8.65565C8.21077 8.68711 8.13278 8.75472 8.08825 8.84363C8.04373 8.93255 8.0363 9.0355 8.06762 9.12988L8.50577 10.4445C9.61727 13.7804 14.383 13.7799 15.494 10.4444L15.9322 9.12988C15.9478 9.08314 15.954 9.03377 15.9506 8.98461C15.9471 8.93545 15.9339 8.88746 15.9119 8.84338C15.8899 8.7993 15.8593 8.75999 15.8221 8.72772C15.7849 8.69544 15.7416 8.67083 15.6948 8.65528Z" fill="black"/>
</svg>
