<svg width="16" height="16" viewBox="0 0 16 16" fill="none" xmlns="http://www.w3.org/2000/svg">
<path d="M3.38409 15.2496C3.32571 15.2503 3.26788 15.2383 3.21465 15.2143C3.16142 15.1904 3.11409 15.155 3.07597 15.1108C3.03785 15.0666 3.00987 15.0146 2.994 14.9584C2.97813 14.9022 2.97474 14.8432 2.98409 14.7856L3.78409 9.76959L0.12209 6.26159C0.0696329 6.21092 0.0320291 6.14687 0.0133461 6.07636C-0.00533695 6.00586 -0.00438809 5.93159 0.0160902 5.86159C0.0383447 5.7903 0.0801135 5.72667 0.136668 5.67789C0.193222 5.62911 0.262304 5.59714 0.33609 5.58559L5.35609 4.80359L7.55609 0.223594C7.58906 0.156502 7.64017 0.09999 7.70362 0.0604692C7.76708 0.0209484 7.84033 0 7.91509 0C7.98984 0 8.0631 0.0209484 8.12656 0.0604692C8.19001 0.09999 8.24112 0.156502 8.27409 0.223594L10.5741 4.73959L15.6041 5.41959C15.678 5.42967 15.7476 5.46021 15.8051 5.50778C15.8626 5.55535 15.9056 5.61804 15.9293 5.68877C15.953 5.7595 15.9565 5.83546 15.9393 5.90805C15.9221 5.98065 15.885 6.047 15.8321 6.09959L12.2321 9.68359L13.1441 14.6836C13.1588 14.7582 13.1519 14.8355 13.1243 14.9063C13.0967 14.9771 13.0494 15.0386 12.9881 15.0836C12.9282 15.1278 12.8571 15.1544 12.7829 15.1604C12.7087 15.1664 12.6343 15.1516 12.5681 15.1176L8.04609 12.7916L3.57409 15.2016C3.51572 15.2331 3.45042 15.2496 3.38409 15.2496ZM1.26009 6.24959L4.50009 9.34359C4.5471 9.38816 4.58258 9.44348 4.60349 9.5048C4.62439 9.56611 4.63009 9.63159 4.62009 9.69559L3.90809 14.1136L7.85209 11.9876C7.90946 11.9575 7.97329 11.9417 8.03809 11.9417C8.10289 11.9417 8.16672 11.9575 8.22409 11.9876L12.2101 14.0196L11.4101 9.61959C11.3982 9.55578 11.4019 9.49003 11.4211 9.428C11.4403 9.36598 11.4742 9.30955 11.5201 9.26359L14.6941 6.10359L10.2541 5.50359C10.1897 5.49499 10.1283 5.47082 10.0754 5.43319C10.0224 5.39555 9.97941 5.34558 9.95009 5.28759L7.92609 1.28759L5.98609 5.32559C5.9579 5.3842 5.91584 5.43504 5.86357 5.47373C5.81129 5.51241 5.75037 5.53776 5.68609 5.54759L1.26009 6.24959Z" fill="white"/>
</svg>
