<svg width="15" height="15" viewBox="0 0 15 15" fill="none" xmlns="http://www.w3.org/2000/svg">
<path fill-rule="evenodd" clip-rule="evenodd" d="M8.24184 0.535887L9.87674 4.60305C9.89039 4.63777 9.91282 4.66796 9.94163 4.69036C9.97087 4.71181 10.0052 4.72446 10.0408 4.72691L14.2705 5.09838C14.4269 5.11103 14.576 5.17219 14.6989 5.27403C14.8218 5.37587 14.9128 5.51375 14.9603 5.67002C14.9861 5.75247 14.9994 5.83857 15 5.92529V5.93583C14.9995 6.00815 14.9899 6.08008 14.9713 6.14975C14.9288 6.30743 14.8427 6.44844 14.7237 6.55504L11.5106 9.45519C11.4829 9.47931 11.4621 9.51097 11.4506 9.54667C11.4402 9.58268 11.4394 9.62096 11.4483 9.65741L12.4172 13.979C12.4537 14.1383 12.4441 14.3053 12.3898 14.4589C12.3354 14.6126 12.2388 14.7459 12.112 14.8421C11.9852 14.9383 11.834 14.993 11.6775 14.9994C11.5209 15.0057 11.3661 14.9634 11.2326 14.8778L7.60206 12.5788C7.57154 12.5589 7.5363 12.5484 7.50034 12.5484C7.46439 12.5484 7.42915 12.5589 7.39863 12.5788L3.76809 14.8778C3.63454 14.9632 3.47979 15.0053 3.32336 14.9989C3.16694 14.9924 3.01584 14.9377 2.88914 14.8415C2.76244 14.7454 2.6658 14.6122 2.61141 14.4587C2.55703 14.3052 2.54733 14.1383 2.58355 13.979L3.55245 9.65741C3.56201 9.62102 3.5612 9.5825 3.55012 9.54658C3.53904 9.51067 3.51817 9.47891 3.49008 9.45523L0.276971 6.55504C0.158008 6.4484 0.0719128 6.3073 0.0295461 6.14955C-0.0128205 5.9918 -0.00956079 5.82446 0.0389141 5.66865C0.087389 5.51283 0.178908 5.37552 0.301925 5.27403C0.424942 5.17254 0.573947 5.11142 0.730143 5.09838L4.95995 4.72679C4.99559 4.7243 5.02991 4.71166 5.05917 4.69024C5.08792 4.66778 5.11033 4.63761 5.12403 4.60293L6.76848 0.511379L6.76766 0.511165C6.82785 0.359813 6.92956 0.230493 7.05996 0.139521C7.19036 0.0485486 7.3436 0 7.50036 0C7.65711 0 7.81035 0.0485486 7.94075 0.139521C8.07115 0.230493 8.17286 0.359813 8.23305 0.511165C8.2364 0.519236 8.23934 0.527488 8.24184 0.535887Z" fill="black"/>
</svg>
