<svg width="18" height="20" viewBox="0 0 18 20" fill="none" xmlns="http://www.w3.org/2000/svg">
<path d="M17.6235 5.23201C17.6235 5.04656 17.4774 4.89482 17.2919 4.8892C17.2751 4.8892 15.6622 4.84424 14.3022 3.85516C13.1502 3.0122 12.7287 1.10148 12.6612 0.421483V0.337186C12.6612 0.151734 12.5095 0 12.3241 0H9.23317C9.04772 0 8.89599 0.151734 8.89599 0.337186V8.99164C8.89599 9.17709 9.04772 9.32882 9.23317 9.32882C9.41862 9.32882 9.57036 9.17709 9.57036 8.99164V0.674373H12.0093C12.1442 1.68031 12.6725 3.50674 13.8976 4.40028C15.044 5.23763 16.331 5.47366 16.9323 5.5411V7.96884C16.1624 7.91826 14.2797 7.65413 12.5151 6.38406C12.414 6.31101 12.2791 6.29977 12.1667 6.35596C12.0543 6.41216 11.9812 6.53018 11.9812 6.65381V13.6673C11.9812 15.6567 10.7056 17.5786 8.99714 18.6183C8.83979 18.7138 8.78921 18.9218 8.88474 19.0791C8.94656 19.1859 9.05896 19.2421 9.17135 19.2421C9.23317 19.2421 9.28937 19.2252 9.34557 19.1915C10.256 18.6352 11.2788 17.7416 11.8127 16.8144C12.3634 15.859 12.65 14.7688 12.65 13.6673V7.28885C14.8192 8.62073 16.9997 8.66007 17.2638 8.66007C17.3538 8.66007 17.438 8.62635 17.4999 8.55892C17.5617 8.4971 17.601 8.40718 17.601 8.32288V5.31069C17.6235 5.28821 17.6235 5.26011 17.6235 5.23201Z" fill="white"/>
<path d="M9.01413 18.6017C8.35099 18.8658 7.60356 19.3322 6.33349 19.3322C3.21451 19.3322 0.674374 16.7921 0.674374 13.6731C0.674374 10.5542 3.21451 8.01402 6.33349 8.01402H6.97415V10.4305H6.33349C4.5464 10.4305 3.09088 11.886 3.09088 13.6731C3.09088 15.4602 4.5464 16.9157 6.33349 16.9157C8.12058 16.9157 9.5761 15.4602 9.5761 13.6731V5.5076C9.5761 5.32214 9.42437 5.17041 9.23892 5.17041C9.05346 5.17041 8.90173 5.32214 8.90173 5.5076V13.6675C8.90173 15.0837 7.74968 16.2357 6.33349 16.2357C4.91731 16.2357 3.76525 15.0837 3.76525 13.6675C3.76525 12.2513 4.91731 11.0993 6.33349 11.0993H7.31133C7.49679 11.0993 7.64852 10.9475 7.64852 10.7621V7.67121C7.64852 7.48576 7.49679 7.33402 7.31133 7.33402H6.33349C2.83799 7.33402 0 10.1776 0 13.6675C0 17.163 2.84361 20.001 6.33349 20.001C7.65976 20.001 8.57579 19.5177 9.3176 19.2198C9.49181 19.1524 9.51991 18.9557 9.45247 18.7815C9.37941 18.6185 9.18272 18.5286 9.01413 18.6017Z" fill="white"/>
</svg>
