<svg width="16" height="18" viewBox="0 0 16 18" fill="none" xmlns="http://www.w3.org/2000/svg">
<path d="M16 4.55756C15.9841 4.55756 14.3714 4.52616 12.9973 3.53198C11.7984 2.6686 11.3846 0.790116 11.321 0.0941862V0H8.40318V12.4169C8.40318 13.9081 7.17241 15.1221 5.66048 15.1221C4.14854 15.1221 2.91777 13.9081 2.91777 12.4169C2.91777 10.9256 4.14854 9.71163 5.66048 9.71163H6.58356V6.83372H5.66048C2.54111 6.83372 0 9.34012 0 12.4169C0 15.4936 2.54111 18 5.66048 18C8.77984 18 11.321 15.4936 11.321 12.4169V5.88663C13.4377 7.38837 15.7294 7.43547 15.9947 7.43547V4.55756H16Z" fill="white"/>
</svg>
