<svg width="18" height="18" viewBox="0 0 18 18" fill="none" xmlns="http://www.w3.org/2000/svg">
<path fill-rule="evenodd" clip-rule="evenodd" d="M16.2 2.84558C16.2 3.09642 16.0327 3.30005 15.8273 3.30005H15.2591L14.1551 16.6243C14.089 17.4083 13.5518 18 12.9035 18H5.09661C4.44968 18 3.91101 17.4083 3.84633 16.6239L2.74233 3.30005H2.17416C1.96742 3.30005 1.80005 3.09642 1.80005 2.84558C1.80005 2.5942 1.96739 2.39093 2.17416 2.39093H5.60432L6.05578 0.337089C6.09938 0.138254 6.24844 0 6.41721 0H11.5843C11.7531 0 11.9007 0.138254 11.9457 0.337089L12.3972 2.39093H15.8274C16.0327 2.39093 16.2 2.5942 16.2 2.84558ZM6.11765 5.86651C5.91231 5.87644 5.75056 6.08775 5.75902 6.33862L6.03749 14.8995C6.04591 15.1444 6.21188 15.336 6.41159 15.336C6.62323 15.336 6.79294 15.1209 6.7843 14.8636L6.50583 6.30251C6.49737 6.05164 6.32438 5.85607 6.11765 5.86651ZM11.4957 6.30251L11.2172 14.8636C11.2088 15.1146 11.3691 15.3258 11.5758 15.3357C11.7794 15.3521 11.9556 15.1429 11.9626 14.8995L12.2425 6.33862C12.2495 6.08778 12.0892 5.87644 11.8838 5.86651C11.6757 5.8564 11.5041 6.05164 11.4957 6.30251ZM8.62666 6.3208V14.8814C8.62666 15.1327 8.79403 15.336 9.00077 15.336C9.2075 15.336 9.37487 15.1327 9.37487 14.8814V6.3208C9.37487 6.06945 9.2075 5.86615 9.00077 5.86615C8.794 5.86615 8.62666 6.06945 8.62666 6.3208ZM6.37785 2.39093H11.6237L11.2974 0.909158H6.70411L6.37785 2.39093Z" fill="black" fill-opacity="0.4"/>
</svg>
