<svg width="24" height="24" viewBox="0 0 24 24" fill="none" xmlns="http://www.w3.org/2000/svg">
<path d="M11.9539 10.9225C14.4139 10.9225 16.4151 8.92123 16.4151 6.46124C16.4151 4.00124 14.4139 2 11.9539 2C9.49392 2 7.49268 4.00124 7.49268 6.46124C7.49268 8.92123 9.49392 10.9225 11.9539 10.9225ZM11.9539 2.68985C14.0335 2.68985 15.7253 4.38169 15.7253 6.46124C15.7253 8.54078 14.0335 10.2326 11.9539 10.2326C9.87437 10.2326 8.18252 8.54078 8.18252 6.46124C8.18252 4.38169 9.87437 2.68985 11.9539 2.68985Z" fill="black"/>
<path d="M11.9539 12.0708C8.30363 12.0708 4.91579 14.1966 3.32294 17.4864C2.84074 18.4843 2.90075 19.5929 3.48816 20.5283C4.07556 21.4637 5.0479 22.0001 6.15614 22.0001H17.7521C18.8603 22.0001 19.833 21.4637 20.4201 20.5283C21.0137 19.5832 21.0734 18.4736 20.5853 17.4864C18.9676 14.1459 15.6601 12.0708 11.9539 12.0708ZM19.8354 20.1617C19.3705 20.9026 18.6303 21.3106 17.7518 21.3106H6.15579C5.27727 21.3106 4.53707 20.9026 4.07177 20.1617C3.60681 19.4211 3.56128 18.5778 3.94345 17.7872C5.42214 14.7336 8.56611 12.7606 11.9536 12.7606C15.3932 12.7606 18.4626 14.6867 19.9651 17.7896C20.3514 18.5709 20.3056 19.4132 19.8354 20.1617Z" fill="black"/>
</svg>
