<svg width="15" height="17" viewBox="0 0 15 17" fill="none" xmlns="http://www.w3.org/2000/svg">
<path d="M4.49474 6.74821L3.9892 7.25376L6.24295 9.51077L10.5026 5.25441L9.99376 4.74561L6.24295 8.49642L4.49474 6.74821Z" fill="white"/>
<path d="M14.488 2.29615L7.24403 0L6.10352e-05 2.29615V5.76973C6.10352e-05 9.55316 1.87873 13.0724 5.02289 15.1794L7.24403 16.6667L9.46516 15.1794C12.6093 13.0724 14.488 9.55642 14.488 5.76973V2.29615ZM13.7704 5.76973C13.7704 9.31507 12.0125 12.6093 9.06725 14.5825L7.24403 15.8023L5.4208 14.5825C2.4756 12.6093 0.717608 9.31507 0.717608 5.76973V2.82126L7.24403 0.753424L13.7704 2.82126V5.76973Z" fill="white"/>
</svg>
