<svg width="13" height="15" viewBox="0 0 13 15" fill="none" xmlns="http://www.w3.org/2000/svg">
<path d="M12.0925 3.44249L6.42408 0.0702686C6.26655 -0.0234229 6.07034 -0.0234229 5.91281 0.0702686L0.244365 3.44249C0.0928711 3.53263 0 3.69593 0 3.87221V5.79722C0 9.85174 2.34258 13.5549 5.9879 14.9663C6.10395 15.0112 6.2328 15.0113 6.34896 14.9663C9.98543 13.5584 12.3368 9.86328 12.3368 5.79722V3.87221C12.3369 3.6959 12.244 3.53263 12.0925 3.44249ZM8.63866 6.37645L5.50491 9.51023C5.30965 9.70549 4.99307 9.70549 4.7978 9.51023L3.698 8.41045C3.50274 8.21521 3.50274 7.8986 3.698 7.70334C3.89326 7.5081 4.20987 7.5081 4.40511 7.70334L5.15133 8.44956L7.93155 5.66934C8.12678 5.47411 8.44339 5.47411 8.63866 5.66934C8.83395 5.86464 8.83395 6.18122 8.63866 6.37645Z" fill="black"/>
</svg>
